<svg width="14" height="14" viewBox="0 0 14 14" fill="none" xmlns="http://www.w3.org/2000/svg">
<path d="M1.68119 13.9905C1.32038 13.9905 1.01139 13.8663 0.754227 13.618C0.497503 13.37 0.369141 13.0718 0.369141 12.7234V3.85327C0.369141 3.5048 0.497503 3.20639 0.754227 2.95802C1.01139 2.71008 1.32038 2.58611 1.68119 2.58611H7.53621L6.22416 3.85327H1.68119V12.7234H10.8655V8.31999L12.1776 7.05284V12.7234C12.1776 13.0718 12.0492 13.37 11.7925 13.618C11.5353 13.8663 11.2263 13.9905 10.8655 13.9905H1.68119ZM9.01226 2.95042L9.9471 3.83743L5.61734 8.01904V8.92189H6.53577L10.8819 4.72444L11.8168 5.61145L7.4706 9.8089C7.35033 9.92506 7.21104 10.0176 7.05272 10.0864C6.89396 10.1548 6.72711 10.1891 6.55217 10.1891H4.96131C4.77544 10.1891 4.61974 10.1284 4.49422 10.0072C4.36827 9.88557 4.30529 9.73499 4.30529 9.55547V8.01904C4.30529 7.85009 4.33809 7.68895 4.40369 7.53562C4.46929 7.38272 4.56223 7.24819 4.6825 7.13204L9.01226 2.95042ZM11.8168 5.61145L9.01226 2.95042L10.6523 1.36648C10.9147 1.11304 11.2292 0.986328 11.5957 0.986328C11.9617 0.986328 12.2705 1.11304 12.522 1.36648L13.4404 2.26932C13.6919 2.5122 13.8176 2.80787 13.8176 3.15633C13.8176 3.5048 13.6919 3.80047 13.4404 4.04334L11.8168 5.61145Z" fill="#494949"/>
</svg>
