<svg id="svg" version="1.1" xmlns="http://www.w3.org/2000/svg" xmlns:xlink="http://www.w3.org/1999/xlink" width="400" height="130.84863922777853" viewBox="0, 0, 400,130.84863922777853"><g id="svgg"><path id="path0" d="M147.333 45.760 L 147.333 73.519 157.208 73.450 C 167.881 73.376,168.443 73.335,171.833 72.395 C 179.088 70.384,183.432 64.538,183.397 56.833 C 183.368 50.518,181.031 46.605,175.773 44.069 L 173.962 43.196 175.049 42.509 C 182.657 37.705,181.566 25.524,173.083 20.551 C 169.429 18.408,166.551 18.001,155.042 18.001 L 147.333 18.000 147.333 45.760 M270.333 26.767 L 270.333 35.533 269.419 34.698 C 266.440 31.975,263.332 30.742,258.964 30.551 C 244.501 29.918,233.720 43.341,236.984 57.919 C 239.912 71.000,254.118 78.542,265.583 73.101 C 267.638 72.126,270.833 69.404,270.833 68.628 C 270.833 68.558,270.908 68.500,271.000 68.500 C 271.104 68.500,271.167 69.444,271.167 71.000 L 271.167 73.500 275.750 73.500 L 280.333 73.500 280.333 45.750 L 280.333 18.000 275.333 18.000 L 270.333 18.000 270.333 26.767 M320.000 26.764 L 320.000 35.528 318.958 34.618 C 309.941 26.737,294.855 30.426,288.687 42.020 C 280.887 56.682,291.134 74.806,307.250 74.852 C 312.737 74.868,318.531 72.217,320.312 68.875 C 320.728 68.093,320.833 68.521,320.833 71.000 L 320.833 73.500 325.417 73.500 L 330.000 73.500 330.000 45.750 L 330.000 18.000 325.000 18.000 L 320.000 18.000 320.000 26.764 M165.380 27.898 C 168.451 28.750,169.750 30.464,169.750 33.667 C 169.750 37.972,167.584 39.454,161.042 39.624 L 157.667 39.712 157.667 33.585 L 157.667 27.458 161.042 27.544 C 163.393 27.604,164.709 27.712,165.380 27.898 M333.833 31.937 C 333.833 31.995,336.318 38.201,339.354 45.729 C 342.390 53.257,345.807 61.732,346.946 64.561 L 349.016 69.705 347.820 72.478 C 344.425 80.343,341.782 86.476,341.578 86.961 L 341.348 87.505 346.716 87.461 L 352.083 87.417 353.051 85.167 C 356.816 76.420,363.208 61.595,365.699 55.833 C 366.433 54.137,367.692 51.212,368.498 49.333 C 369.304 47.454,371.067 43.367,372.416 40.250 C 375.151 33.933,376.000 31.949,376.000 31.880 C 376.000 31.854,373.467 31.833,370.372 31.833 L 364.743 31.833 361.938 39.292 C 360.395 43.394,358.147 49.392,356.942 52.620 C 355.736 55.849,354.703 58.493,354.646 58.495 C 354.589 58.498,354.302 57.806,354.008 56.958 C 353.714 56.110,353.074 54.292,352.585 52.917 C 352.096 51.542,351.096 48.729,350.362 46.667 C 349.628 44.604,348.147 40.423,347.069 37.375 L 345.111 31.833 339.472 31.833 C 336.371 31.833,333.833 31.880,333.833 31.937 M189.877 46.125 C 189.956 58.177,189.992 58.709,190.929 61.675 C 191.908 64.772,193.062 66.695,195.194 68.777 C 206.604 79.921,226.617 74.454,229.154 59.500 C 229.590 56.929,229.664 54.862,229.665 45.208 L 229.667 35.000 224.583 35.000 L 219.500 35.000 219.499 44.208 C 219.497 56.066,219.364 57.717,218.222 60.132 C 215.050 66.841,204.565 66.935,201.406 60.283 C 200.226 57.799,200.279 58.426,200.210 46.125 L 200.147 35.000 194.975 35.000 L 189.803 35.000 189.877 46.125 M261.437 39.921 C 267.880 41.378,272.360 48.884,270.769 55.559 C 268.222 66.248,255.567 69.398,249.220 60.923 C 241.902 51.151,249.946 37.324,261.437 39.921 M311.141 39.928 C 319.008 41.722,323.127 51.727,319.058 59.158 C 315.039 66.499,305.996 68.018,300.157 62.333 C 290.800 53.224,298.709 37.094,311.141 39.928 M165.750 49.399 C 170.580 50.140,173.167 52.732,173.167 56.831 C 173.167 61.936,169.653 64.000,160.963 64.000 L 157.667 64.000 157.667 56.583 L 157.667 49.167 160.958 49.168 C 162.917 49.169,164.858 49.262,165.750 49.399 M27.451 97.904 C 24.265 98.760,24.621 101.879,28.099 103.584 C 30.228 104.627,30.829 105.335,30.603 106.535 C 30.204 108.664,27.127 108.973,26.327 106.964 C 26.207 106.663,26.092 106.392,26.070 106.363 C 25.891 106.115,24.997 106.898,25.094 107.217 C 25.975 110.120,30.871 109.955,31.668 106.996 C 32.193 105.047,31.510 103.958,28.997 102.730 C 26.666 101.591,26.134 100.858,26.761 99.645 C 27.328 98.549,29.090 98.459,29.851 99.488 C 30.182 99.937,31.161 99.807,31.166 99.314 C 31.175 98.361,28.927 97.508,27.451 97.904 M160.036 97.852 C 156.161 98.498,154.067 102.882,155.963 106.384 C 157.358 108.962,160.937 110.073,163.583 108.750 L 164.583 108.250 164.636 107.417 L 164.688 106.584 164.219 107.032 C 161.911 109.238,157.647 108.137,156.746 105.102 C 155.429 100.668,159.961 97.231,163.792 99.759 L 164.667 100.337 164.667 99.597 C 164.667 98.869,164.654 98.851,163.792 98.444 C 163.123 98.129,160.996 97.566,160.928 97.686 C 160.922 97.697,160.520 97.772,160.036 97.852 M176.869 97.852 C 172.983 98.499,170.895 102.872,172.796 106.384 C 174.191 108.962,177.771 110.073,180.417 108.750 L 181.417 108.250 181.469 107.417 L 181.522 106.584 181.052 107.023 C 178.687 109.241,174.488 108.162,173.580 105.102 C 172.263 100.668,176.794 97.231,180.625 99.759 L 181.500 100.337 181.500 99.597 C 181.500 98.869,181.487 98.851,180.625 98.444 C 179.957 98.129,177.830 97.566,177.761 97.686 C 177.755 97.697,177.354 97.772,176.869 97.852 M296.954 97.902 C 295.492 98.298,294.737 99.349,294.884 100.780 C 295.021 102.103,295.428 102.542,297.387 103.481 C 299.660 104.571,300.308 105.328,300.067 106.611 C 299.655 108.807,296.477 108.880,295.652 106.712 C 295.437 106.145,294.415 106.633,294.597 107.217 C 295.385 109.758,299.507 110.050,300.909 107.664 C 302.028 105.760,301.196 104.050,298.508 102.732 C 296.054 101.527,295.559 100.809,296.321 99.559 C 296.965 98.502,298.544 98.520,299.417 99.594 L 299.750 100.005 300.221 99.624 L 300.692 99.244 300.349 98.808 C 299.705 97.990,298.155 97.576,296.954 97.902 M326.704 97.852 C 321.105 98.785,320.119 106.424,325.283 108.862 C 326.574 109.471,328.914 109.418,330.250 108.750 L 331.250 108.250 331.302 107.435 L 331.354 106.620 330.802 107.086 C 327.675 109.725,323.252 107.674,323.252 103.583 C 323.252 99.548,328.207 97.191,330.760 100.011 C 331.201 100.498,331.333 100.406,331.333 99.610 C 331.333 98.904,331.314 98.878,330.458 98.459 C 329.793 98.134,327.666 97.560,327.594 97.686 C 327.588 97.697,327.188 97.772,326.704 97.852 M49.083 102.703 C 48.554 105.387,48.068 107.902,48.004 108.292 L 47.886 109.000 48.440 109.000 C 49.110 109.000,48.903 109.724,50.120 103.125 C 50.414 101.528,50.518 101.396,50.842 102.208 C 50.961 102.506,51.259 103.200,51.505 103.750 C 51.750 104.300,52.388 105.780,52.923 107.039 C 53.457 108.298,53.926 109.296,53.965 109.257 C 54.046 109.176,55.935 104.854,56.699 103.000 C 57.399 101.301,57.410 101.300,57.708 102.869 C 57.852 103.629,58.174 105.319,58.424 106.625 L 58.877 109.000 59.439 109.000 C 59.747 109.000,60.000 108.963,60.000 108.917 C 60.000 108.786,58.177 99.508,57.974 98.608 L 57.792 97.799 57.142 99.358 C 56.784 100.215,56.355 101.217,56.187 101.583 C 56.019 101.950,55.477 103.243,54.983 104.457 C 53.934 107.032,54.000 107.009,53.179 105.081 C 52.829 104.257,52.001 102.308,51.339 100.750 C 50.678 99.192,50.116 97.896,50.091 97.870 C 50.066 97.844,49.612 100.019,49.083 102.703 M144.123 97.937 C 144.073 98.017,143.380 99.583,142.582 101.417 C 141.784 103.250,141.031 104.975,140.907 105.250 C 140.474 106.214,139.333 108.891,139.333 108.945 C 139.333 108.975,139.618 109.000,139.966 109.000 L 140.598 109.000 141.266 107.375 L 141.934 105.750 144.184 105.704 L 146.434 105.658 146.779 106.454 C 146.970 106.892,147.294 107.644,147.500 108.125 C 147.857 108.960,147.903 109.000,148.505 109.000 L 149.136 109.000 148.587 107.708 C 145.770 101.073,144.246 97.737,144.123 97.937 M223.080 98.750 C 222.837 99.300,222.537 99.975,222.412 100.250 C 221.651 101.934,218.667 108.832,218.667 108.908 C 218.667 108.959,218.949 109.000,219.295 109.000 L 219.923 109.000 220.608 107.375 L 221.293 105.750 223.538 105.704 L 225.784 105.658 226.420 107.204 C 227.196 109.087,227.152 109.035,227.888 108.970 L 228.487 108.917 227.929 107.667 C 227.252 106.153,226.579 104.620,225.000 101.000 C 224.340 99.487,223.737 98.138,223.660 98.000 C 223.557 97.815,223.407 98.008,223.080 98.750 M39.333 103.500 L 39.333 109.000 39.917 109.000 L 40.500 109.000 40.500 103.500 L 40.500 98.000 39.917 98.000 L 39.333 98.000 39.333 103.500 M67.333 103.486 L 67.333 109.000 68.000 109.000 L 68.667 109.000 68.667 106.500 L 68.667 104.000 70.031 104.000 C 72.484 104.000,73.500 103.110,73.500 100.960 C 73.500 98.799,72.536 98.114,69.375 98.028 L 67.333 97.973 67.333 103.486 M80.833 103.500 L 80.833 109.000 83.583 109.000 L 86.333 109.000 86.333 108.505 L 86.333 108.010 84.208 107.963 L 82.083 107.917 82.039 102.958 L 81.995 98.000 81.414 98.000 L 80.833 98.000 80.833 103.500 M93.500 103.500 L 93.500 109.000 96.417 109.000 L 99.333 109.000 99.333 108.505 L 99.333 108.009 97.042 107.963 L 94.750 107.917 94.750 105.750 L 94.750 103.583 97.042 103.537 L 99.333 103.491 99.333 103.000 L 99.333 102.509 97.042 102.463 L 94.750 102.417 94.702 100.792 L 94.655 99.167 96.994 99.167 L 99.333 99.167 99.333 98.583 L 99.333 98.000 96.417 98.000 L 93.500 98.000 93.500 103.500 M189.377 102.125 C 189.484 108.185,190.167 109.333,193.667 109.333 C 197.145 109.333,197.835 108.173,197.955 102.125 L 198.037 98.000 197.362 98.000 L 196.687 98.000 196.635 102.208 C 196.568 107.679,196.315 108.168,193.558 108.166 C 190.977 108.165,190.675 107.524,190.670 102.042 L 190.667 98.000 189.985 98.000 L 189.303 98.000 189.377 102.125 M206.167 103.483 L 206.167 109.000 206.750 109.000 L 207.333 109.000 207.333 106.417 C 207.333 103.234,207.291 103.244,209.333 105.937 C 211.758 109.133,211.653 109.031,212.452 108.970 L 213.139 108.917 211.314 106.667 C 208.879 103.663,208.972 103.897,210.120 103.659 C 211.769 103.317,212.550 102.110,212.255 100.361 C 211.954 98.579,211.165 98.115,208.292 98.030 L 206.167 97.967 206.167 103.483 M233.333 98.583 L 233.333 99.167 234.833 99.167 L 236.333 99.167 236.333 104.083 L 236.333 109.000 237.000 109.000 L 237.667 109.000 237.667 104.083 L 237.667 99.167 239.250 99.167 L 240.833 99.167 240.833 98.583 L 240.833 98.000 237.083 98.000 L 233.333 98.000 233.333 98.583 M248.000 103.500 L 248.000 109.000 250.833 109.000 L 253.667 109.000 253.667 108.500 L 253.667 108.000 251.417 108.000 L 249.167 108.000 249.167 105.750 L 249.167 103.500 251.417 103.500 L 253.667 103.500 253.667 103.000 L 253.667 102.500 251.417 102.500 L 249.167 102.500 249.167 100.833 L 249.167 99.167 251.417 99.167 L 253.667 99.167 253.667 98.583 L 253.667 98.000 250.833 98.000 L 248.000 98.000 248.000 103.500 M308.667 103.500 L 308.667 109.000 311.583 109.000 L 314.500 109.000 314.500 108.505 L 314.500 108.009 312.208 107.963 L 309.917 107.917 309.917 105.750 L 309.917 103.583 312.208 103.537 L 314.500 103.491 314.500 103.000 L 314.500 102.509 312.208 102.463 L 309.917 102.417 309.869 100.792 L 309.821 99.167 312.161 99.167 L 314.500 99.167 314.500 98.583 L 314.500 98.000 311.583 98.000 L 308.667 98.000 308.667 103.500 M339.167 101.939 C 339.167 106.041,339.265 106.816,339.902 107.750 C 341.427 109.985,345.656 109.895,347.077 107.597 L 347.583 106.777 347.637 102.389 L 347.691 98.000 347.106 98.000 L 346.521 98.000 346.469 102.125 C 346.399 107.626,346.125 108.167,343.402 108.167 C 340.762 108.167,340.435 107.517,340.358 102.125 L 340.300 98.000 339.733 98.000 L 339.167 98.000 339.167 101.939 M356.000 103.483 L 356.000 109.000 356.583 109.000 L 357.167 109.000 357.167 106.417 C 357.167 104.842,357.230 103.833,357.330 103.833 C 357.497 103.833,358.638 105.239,360.417 107.637 C 361.391 108.950,361.435 108.985,362.125 108.993 C 363.044 109.002,363.131 109.181,360.848 106.338 C 358.751 103.727,358.734 103.677,359.891 103.669 C 361.644 103.656,362.681 101.173,361.679 99.390 C 361.055 98.281,360.569 98.094,358.125 98.026 L 356.000 97.967 356.000 103.483 M369.833 103.500 L 369.833 109.000 372.750 109.000 L 375.667 109.000 375.667 108.505 L 375.667 108.009 373.375 107.963 L 371.083 107.917 371.083 105.750 L 371.083 103.583 373.375 103.537 L 375.667 103.491 375.667 103.000 L 375.667 102.509 373.375 102.463 L 371.083 102.417 371.036 100.792 L 370.988 99.167 373.327 99.167 L 375.667 99.167 375.667 98.583 L 375.667 98.000 372.750 98.000 L 369.833 98.000 369.833 103.500 M210.396 99.388 C 210.997 99.782,211.278 100.805,211.020 101.666 C 210.750 102.566,210.195 102.833,208.592 102.833 L 207.333 102.833 207.333 100.895 L 207.333 98.957 208.653 99.034 C 209.491 99.082,210.126 99.211,210.396 99.388 M359.683 99.185 C 360.566 99.474,360.834 99.894,360.828 100.977 C 360.820 102.468,360.348 102.833,358.428 102.833 L 357.167 102.833 357.167 100.917 L 357.167 99.000 358.142 99.000 C 358.678 99.000,359.372 99.083,359.683 99.185 M71.333 99.459 C 72.058 99.821,72.379 100.644,72.165 101.593 C 71.936 102.604,71.110 103.000,69.227 103.000 L 68.667 103.000 68.667 101.083 L 68.667 99.167 69.708 99.167 C 70.366 99.167,70.965 99.275,71.333 99.459 M145.056 102.259 C 146.233 104.921,146.314 104.667,144.289 104.667 C 142.538 104.667,142.221 104.597,142.476 104.265 C 142.553 104.165,142.861 103.483,143.161 102.750 C 143.806 101.172,144.166 100.444,144.257 100.535 C 144.294 100.571,144.653 101.347,145.056 102.259 M224.385 102.278 C 225.559 104.930,225.643 104.667,223.622 104.667 C 221.872 104.667,221.557 104.597,221.807 104.265 C 221.882 104.165,222.045 103.821,222.169 103.500 C 222.609 102.359,223.505 100.450,223.570 100.516 C 223.606 100.553,223.973 101.346,224.385 102.278 " stroke="none" fill="#22384e" fill-rule="evenodd"></path><path id="path1" d="M0.000 65.417 L 0.000 130.833 200.000 130.833 L 400.000 130.833 400.000 65.417 L 400.000 0.000 200.000 0.000 L 0.000 0.000 0.000 65.417 M55.000 22.750 L 55.000 27.667 49.833 27.667 L 44.667 27.667 44.667 50.667 L 44.667 73.667 39.500 73.667 L 34.333 73.667 34.333 50.667 L 34.333 27.667 29.167 27.667 L 24.000 27.667 24.000 22.750 L 24.000 17.833 39.500 17.833 L 55.000 17.833 55.000 22.750 M162.917 18.006 C 168.282 18.303,171.039 19.055,173.917 21.005 C 181.711 26.287,182.431 37.952,175.244 42.491 L 174.160 43.176 176.128 44.161 C 186.372 49.289,185.998 65.291,175.500 71.025 C 171.563 73.175,167.868 73.667,155.649 73.667 L 147.333 73.667 147.333 45.750 L 147.333 17.833 153.625 17.837 C 157.085 17.838,161.267 17.914,162.917 18.006 M197.466 18.171 C 201.526 19.206,202.827 24.708,199.683 27.548 C 198.066 29.010,195.262 29.456,193.525 28.530 C 187.517 25.323,190.877 16.490,197.466 18.171 M225.417 18.088 C 230.610 18.921,231.191 26.799,226.198 28.673 C 220.675 30.746,216.121 23.840,220.226 19.617 C 221.281 18.532,223.220 17.751,224.417 17.931 C 224.600 17.958,225.050 18.029,225.417 18.088 M280.333 45.753 L 280.333 73.672 275.708 73.628 L 271.083 73.583 271.037 71.107 L 270.991 68.631 270.420 69.378 C 266.584 74.402,258.412 76.325,251.194 73.903 C 235.585 68.666,231.194 47.846,243.270 36.331 C 250.676 29.270,262.077 28.345,269.006 34.244 L 270.250 35.303 270.293 26.568 L 270.336 17.833 275.335 17.833 L 280.333 17.833 280.333 45.753 M330.000 45.753 L 330.000 73.672 325.375 73.628 L 320.750 73.583 320.667 71.083 L 320.583 68.583 320.213 69.178 C 316.499 75.150,305.263 76.748,297.426 72.418 C 284.682 65.376,282.045 47.770,292.141 37.130 C 299.684 29.181,312.047 28.054,319.108 34.672 L 319.833 35.352 319.833 26.704 C 319.833 21.947,319.883 18.006,319.944 17.944 C 320.006 17.883,322.293 17.833,325.028 17.833 L 330.000 17.833 330.000 45.753 M157.667 33.565 L 157.667 39.500 160.851 39.500 C 167.332 39.500,169.737 37.922,169.742 33.667 C 169.747 29.317,167.675 27.856,161.292 27.712 L 157.667 27.630 157.667 33.565 M78.554 30.777 C 81.777 31.396,85.441 33.392,87.792 35.810 L 89.000 37.053 89.000 34.443 L 89.000 31.833 93.667 31.833 L 98.335 31.833 98.292 52.708 L 98.250 73.583 93.625 73.628 L 89.000 73.672 89.000 71.151 L 89.000 68.631 87.985 69.570 C 80.105 76.866,67.860 76.665,60.456 69.119 C 53.034 61.553,51.998 47.983,58.171 39.192 C 62.789 32.617,70.836 29.294,78.554 30.777 M116.459 34.042 C 117.916 36.453,122.676 44.229,122.730 44.285 C 122.764 44.320,123.493 43.128,127.841 35.930 L 130.265 31.917 135.882 31.873 C 138.972 31.849,141.500 31.873,141.500 31.926 C 141.500 31.980,140.216 34.025,138.647 36.470 C 137.077 38.916,135.184 41.874,134.438 43.044 C 133.693 44.214,132.821 45.583,132.500 46.085 C 131.353 47.881,128.914 51.723,128.796 51.921 C 128.726 52.038,128.966 52.536,129.365 53.103 C 132.731 57.880,143.376 73.250,143.446 73.433 C 143.522 73.631,142.626 73.667,137.615 73.667 L 131.695 73.667 128.649 68.792 C 122.860 59.527,122.809 59.450,122.592 59.694 C 122.483 59.816,121.629 61.154,120.694 62.667 C 119.759 64.179,117.851 67.254,116.455 69.500 L 113.917 73.583 107.958 73.627 C 104.681 73.651,102.000 73.631,102.000 73.582 C 102.000 73.533,105.277 68.751,109.283 62.955 C 113.289 57.159,116.567 52.267,116.568 52.083 C 116.569 51.900,115.267 49.725,113.674 47.250 C 111.112 43.267,105.493 34.474,104.275 32.542 L 103.829 31.833 109.477 31.833 L 115.125 31.833 116.459 34.042 M345.426 32.500 C 345.747 33.395,347.363 37.952,348.382 40.833 C 348.884 42.254,350.173 45.892,351.246 48.917 C 352.320 51.942,353.504 55.300,353.877 56.381 C 354.250 57.461,354.610 58.286,354.677 58.214 C 354.744 58.142,356.192 54.371,357.895 49.833 C 359.597 45.296,361.809 39.408,362.810 36.750 L 364.629 31.917 370.381 31.873 L 376.132 31.829 373.895 37.040 C 372.665 39.905,371.587 42.400,371.500 42.583 C 371.327 42.945,368.201 50.197,366.255 54.750 C 364.918 57.877,361.426 65.962,361.072 66.750 C 360.867 67.207,357.680 74.604,354.000 83.167 C 353.193 85.046,352.438 86.790,352.323 87.042 L 352.113 87.500 346.723 87.500 C 343.759 87.500,341.333 87.458,341.333 87.407 C 341.333 87.356,341.794 86.250,342.358 84.949 C 342.921 83.648,343.748 81.721,344.196 80.667 C 344.644 79.612,345.114 78.525,345.240 78.250 C 345.367 77.975,345.769 77.037,346.135 76.167 C 346.500 75.296,347.256 73.533,347.815 72.250 C 348.373 70.967,348.831 69.818,348.832 69.698 C 348.833 69.488,347.156 65.267,342.164 52.917 C 339.307 45.847,334.020 32.728,333.819 32.206 L 333.673 31.829 339.445 31.873 L 345.217 31.917 345.426 32.500 M200.207 45.792 C 200.280 58.108,200.267 57.973,201.592 60.494 C 203.258 63.664,205.544 64.917,209.667 64.917 C 213.179 64.917,214.567 64.441,216.387 62.616 C 219.128 59.866,219.218 59.360,219.327 45.917 L 219.417 34.917 224.542 34.873 L 229.667 34.829 229.667 45.544 C 229.667 56.160,229.607 57.635,229.065 60.333 C 226.155 74.819,206.138 79.736,195.003 68.700 C 190.446 64.184,189.833 61.431,189.833 45.469 L 189.833 34.833 194.987 34.833 L 200.141 34.833 200.207 45.792 M73.765 39.930 C 67.987 41.222,63.641 47.596,64.241 53.900 C 65.553 67.687,83.434 70.236,87.980 57.284 L 88.577 55.583 88.578 52.667 C 88.579 49.614,88.513 49.202,87.709 47.167 C 85.571 41.757,79.556 38.635,73.765 39.930 M256.222 39.926 C 248.502 41.619,244.240 50.855,247.747 58.291 C 252.227 67.792,264.568 68.211,269.380 59.026 C 274.466 49.320,266.449 37.683,256.222 39.926 M305.855 39.923 C 300.352 41.118,296.164 46.553,296.168 52.497 C 296.176 65.374,311.654 70.572,318.491 59.993 C 324.658 50.452,316.566 37.600,305.855 39.923 M157.667 56.583 L 157.667 63.833 161.656 63.833 C 169.361 63.833,172.703 61.995,173.098 57.539 C 173.597 51.905,169.931 49.333,161.402 49.333 L 157.667 49.333 157.667 56.583 M120.333 105.000 L 120.333 112.833 119.833 112.833 L 119.333 112.833 119.333 105.000 L 119.333 97.167 119.833 97.167 L 120.333 97.167 120.333 105.000 M274.750 105.000 L 274.750 112.750 274.208 112.802 L 273.667 112.854 273.667 105.000 L 273.667 97.146 274.208 97.198 L 274.750 97.250 274.750 105.000 M226.158 103.417 L 228.649 109.083 228.057 109.136 C 227.173 109.215,227.130 109.170,226.429 107.437 L 225.781 105.833 223.580 105.833 L 221.379 105.833 220.952 106.792 C 220.717 107.319,220.399 108.069,220.244 108.458 C 219.991 109.098,218.500 109.621,218.500 109.070 C 218.500 108.990,219.862 105.820,221.001 103.250 C 221.272 102.637,222.696 99.379,223.294 98.000 C 223.434 97.679,223.574 97.492,223.607 97.583 C 223.640 97.675,224.788 100.300,226.158 103.417 M30.250 98.167 C 31.262 98.792,31.446 99.387,30.743 99.765 C 30.170 100.074,30.166 100.073,29.907 99.703 C 28.924 98.300,26.667 98.773,26.667 100.381 C 26.667 101.377,27.081 101.730,29.525 102.815 C 33.322 104.502,32.441 109.366,28.334 109.388 C 26.048 109.400,23.964 107.284,25.493 106.504 L 26.143 106.172 26.332 106.747 C 27.068 108.977,30.515 108.496,30.493 106.167 C 30.483 105.057,29.592 104.194,27.796 103.558 C 25.453 102.728,24.507 100.333,25.896 98.745 C 26.869 97.632,28.939 97.357,30.250 98.167 M52.009 102.089 C 53.043 104.521,53.945 106.452,54.014 106.380 C 54.082 106.309,54.545 105.275,55.043 104.083 C 57.364 98.526,57.737 97.667,57.832 97.667 C 57.887 97.667,58.143 98.773,58.401 100.125 C 59.072 103.650,59.988 108.351,60.090 108.802 C 60.173 109.163,60.134 109.183,59.465 109.135 L 58.753 109.083 58.382 107.083 C 58.178 105.983,57.880 104.353,57.721 103.460 C 57.561 102.567,57.379 101.892,57.316 101.960 C 57.253 102.028,56.510 103.696,55.664 105.667 C 54.819 107.638,54.071 109.311,54.003 109.385 C 53.936 109.459,53.386 108.372,52.782 106.968 C 52.179 105.565,51.425 103.822,51.107 103.095 L 50.529 101.773 50.372 102.428 C 50.285 102.788,50.133 103.533,50.035 104.083 C 49.937 104.633,49.686 106.002,49.478 107.125 L 49.100 109.167 48.467 109.167 C 47.980 109.167,47.833 109.101,47.833 108.881 C 47.833 108.271,49.953 97.667,50.075 97.667 C 50.104 97.667,50.974 99.657,52.009 102.089 M145.558 100.528 C 146.139 101.842,146.743 103.217,146.900 103.583 C 147.058 103.950,147.665 105.337,148.249 106.667 L 149.312 109.083 148.722 109.136 C 147.840 109.215,147.796 109.169,147.094 107.432 L 146.444 105.824 144.210 105.870 L 141.975 105.917 141.300 107.542 L 140.625 109.167 139.896 109.167 C 138.984 109.167,138.790 109.835,141.500 103.643 C 142.783 100.711,143.833 98.256,143.833 98.189 C 143.833 98.122,143.924 97.976,144.034 97.866 C 144.284 97.616,144.221 97.505,145.558 100.528 M163.650 98.256 L 164.667 98.712 164.667 99.595 L 164.667 100.477 163.821 99.909 C 160.534 97.696,156.662 99.741,156.668 103.686 C 156.674 107.555,161.371 109.629,164.112 106.973 L 164.667 106.435 164.667 107.391 L 164.667 108.347 163.665 108.821 C 159.581 110.753,155.250 108.057,155.250 103.583 C 155.250 99.082,159.493 96.390,163.650 98.256 M180.272 98.159 C 181.399 98.658,181.667 98.946,181.667 99.665 C 181.667 100.509,181.553 100.557,180.855 100.004 C 177.072 97.007,171.850 101.200,173.896 105.593 C 175.124 108.231,178.995 109.006,180.917 107.000 C 181.566 106.322,181.667 106.365,181.667 107.322 C 181.667 109.460,177.282 110.178,174.627 108.475 C 170.384 105.752,171.594 98.862,176.500 97.809 C 177.487 97.597,179.404 97.775,180.272 98.159 M299.715 98.145 C 300.591 98.687,300.841 99.289,300.353 99.685 C 299.854 100.089,299.557 100.084,299.334 99.668 C 298.562 98.225,296.167 98.821,296.167 100.456 C 296.167 101.304,296.689 101.800,298.333 102.514 C 300.702 103.543,301.332 104.267,301.333 105.967 C 301.334 108.147,300.068 109.382,297.833 109.382 C 295.208 109.382,293.320 107.038,295.347 106.295 C 295.536 106.226,295.669 106.357,295.813 106.758 C 296.634 109.028,300.000 108.469,300.000 106.063 C 300.000 105.258,298.975 104.256,297.567 103.684 C 295.217 102.730,294.348 101.469,294.824 99.703 C 295.293 97.960,298.013 97.093,299.715 98.145 M330.268 98.274 L 331.250 98.750 331.301 99.634 L 331.351 100.518 330.494 99.928 C 327.265 97.707,323.264 99.737,323.287 103.584 C 323.312 107.522,327.691 109.591,330.647 107.061 L 331.333 106.474 331.333 107.401 L 331.333 108.328 330.523 108.738 C 326.512 110.771,322.071 108.261,321.867 103.847 C 321.658 99.298,326.183 96.296,330.268 98.274 M99.333 98.500 L 99.333 99.167 97.083 99.167 L 94.833 99.167 94.833 100.750 L 94.833 102.333 97.083 102.333 L 99.333 102.333 99.333 103.000 L 99.333 103.667 97.083 103.667 L 94.833 103.667 94.833 105.750 L 94.833 107.833 97.083 107.833 L 99.333 107.833 99.333 108.500 L 99.333 109.167 96.333 109.167 L 93.333 109.167 93.333 103.587 L 93.333 98.008 96.292 97.958 C 97.919 97.931,99.269 97.892,99.292 97.871 C 99.315 97.850,99.333 98.133,99.333 98.500 M253.833 98.588 L 253.833 99.157 251.542 99.204 L 249.250 99.250 249.202 100.792 L 249.154 102.333 251.494 102.333 L 253.833 102.333 253.833 103.000 L 253.833 103.667 251.500 103.667 L 249.167 103.667 249.167 105.750 L 249.167 107.833 251.500 107.833 L 253.833 107.833 253.833 108.500 L 253.833 109.167 250.833 109.167 L 247.833 109.167 247.833 103.587 L 247.833 98.008 250.708 97.962 C 254.057 97.909,253.833 97.864,253.833 98.588 M314.500 98.591 L 314.500 99.167 312.250 99.167 L 310.000 99.167 310.000 100.750 L 310.000 102.333 312.250 102.333 L 314.500 102.333 314.500 103.000 L 314.500 103.667 312.250 103.667 L 310.000 103.667 310.000 105.750 L 310.000 107.833 312.250 107.833 L 314.500 107.833 314.500 108.500 L 314.500 109.167 311.583 109.167 L 308.667 109.167 308.667 103.611 C 308.667 100.556,308.698 98.024,308.736 97.986 C 308.774 97.948,310.086 97.939,311.652 97.966 L 314.500 98.015 314.500 98.591 M340.532 102.280 C 340.597 107.570,340.850 108.084,343.387 108.083 C 346.036 108.081,346.333 107.472,346.333 102.048 L 346.333 98.035 347.009 97.971 C 347.902 97.885,347.833 97.565,347.833 101.826 C 347.833 108.060,347.085 109.375,343.521 109.402 C 339.864 109.431,339.152 108.275,339.043 102.136 L 338.970 98.022 339.610 97.968 C 340.519 97.891,340.475 97.686,340.532 102.280 M375.667 98.500 L 375.667 99.167 373.417 99.167 L 371.167 99.167 371.167 100.750 L 371.167 102.333 373.417 102.333 L 375.667 102.333 375.667 103.000 L 375.667 103.667 373.417 103.667 L 371.167 103.667 371.167 105.750 L 371.167 107.833 373.417 107.833 L 375.667 107.833 375.667 108.500 L 375.667 109.167 372.750 109.167 L 369.833 109.167 369.833 103.587 L 369.833 98.008 372.708 97.958 C 374.290 97.931,375.602 97.891,375.625 97.871 C 375.648 97.850,375.667 98.133,375.667 98.500 M40.500 103.583 L 40.500 109.167 39.833 109.167 L 39.167 109.167 39.167 103.583 L 39.167 98.000 39.833 98.000 L 40.500 98.000 40.500 103.583 M72.166 98.375 C 73.884 99.250,74.199 102.038,72.726 103.332 C 72.038 103.936,71.233 104.165,69.792 104.166 L 68.667 104.167 68.667 106.667 L 68.667 109.167 68.000 109.167 L 67.333 109.167 67.333 103.583 L 67.333 98.000 69.381 98.000 C 71.176 98.000,71.520 98.046,72.166 98.375 M82.167 102.917 L 82.167 107.833 84.250 107.833 L 86.333 107.833 86.333 108.500 L 86.333 109.167 83.583 109.167 L 80.833 109.167 80.833 103.583 L 80.833 98.000 81.500 98.000 L 82.167 98.000 82.167 102.917 M190.696 102.125 C 190.765 107.390,191.010 107.941,193.355 108.113 C 196.111 108.315,196.499 107.576,196.500 102.125 L 196.500 98.000 197.250 98.000 L 198.000 98.000 198.000 101.825 C 198.000 108.177,197.292 109.415,193.667 109.397 C 189.996 109.379,189.437 108.466,189.365 102.375 L 189.313 98.000 189.977 98.000 L 190.641 98.000 190.696 102.125 M210.939 98.272 C 213.342 99.412,212.684 103.340,210.017 103.767 C 209.158 103.904,209.007 103.593,211.363 106.543 L 213.393 109.083 212.677 109.136 C 211.671 109.209,211.751 109.276,209.826 106.754 C 208.868 105.498,207.954 104.309,207.795 104.111 C 207.520 103.765,207.507 103.864,207.504 106.458 L 207.500 109.167 206.833 109.167 L 206.167 109.167 206.167 103.583 L 206.167 98.000 208.266 98.000 C 209.862 98.000,210.504 98.065,210.939 98.272 M240.833 98.667 L 240.833 99.333 239.333 99.333 L 237.833 99.333 237.833 104.250 L 237.833 109.167 237.083 109.167 L 236.333 109.167 236.333 104.256 L 236.333 99.346 234.792 99.298 L 233.250 99.250 233.198 98.625 L 233.147 98.000 236.990 98.000 L 240.833 98.000 240.833 98.667 M361.244 98.661 C 363.103 100.463,362.251 103.345,359.726 103.794 L 359.036 103.917 361.101 106.484 C 363.518 109.489,363.376 109.169,362.292 109.157 L 361.417 109.147 359.583 106.728 C 358.575 105.398,357.675 104.184,357.583 104.030 C 357.466 103.832,357.392 104.531,357.333 106.417 L 357.250 109.083 356.542 109.135 L 355.833 109.186 355.833 103.577 L 355.833 97.969 358.241 98.026 L 360.649 98.083 361.244 98.661 M68.667 101.000 L 68.667 102.833 69.672 102.833 C 71.534 102.833,72.296 102.191,72.112 100.779 C 71.969 99.688,71.074 99.167,69.343 99.167 L 68.667 99.167 68.667 101.000 M207.500 101.000 L 207.500 102.833 208.125 102.823 C 210.269 102.789,211.000 102.339,211.000 101.054 C 211.000 99.664,210.366 99.167,208.592 99.167 L 207.500 99.167 207.500 101.000 M357.333 101.023 L 357.333 102.879 358.599 102.765 C 360.117 102.627,360.451 102.446,360.698 101.625 C 361.164 100.078,360.321 99.167,358.425 99.167 L 357.333 99.167 357.333 101.023 M143.932 101.183 C 143.801 101.495,143.428 102.369,143.103 103.125 L 142.513 104.500 144.173 104.500 C 145.086 104.500,145.833 104.454,145.833 104.398 C 145.833 104.282,144.327 100.785,144.233 100.683 C 144.199 100.646,144.064 100.871,143.932 101.183 M223.152 101.435 C 222.955 101.883,222.583 102.756,222.323 103.375 L 221.852 104.500 223.509 104.500 C 224.421 104.500,225.167 104.454,225.167 104.398 C 225.167 104.284,223.661 100.786,223.568 100.685 C 223.535 100.649,223.348 100.986,223.152 101.435 " stroke="none" fill="#fbfbfb" fill-rule="evenodd"></path><path id="path2" d="M24.000 22.750 L 24.000 27.500 29.167 27.500 L 34.333 27.500 34.333 50.500 L 34.333 73.500 39.500 73.500 L 44.667 73.500 44.667 50.500 L 44.667 27.500 49.833 27.500 L 55.000 27.500 55.000 22.750 L 55.000 18.000 39.500 18.000 L 24.000 18.000 24.000 22.750 M71.573 30.760 C 49.714 34.434,48.031 68.406,69.417 74.271 C 75.508 75.941,83.665 73.813,87.994 69.424 C 89.205 68.196,89.167 68.145,89.167 71.000 L 89.167 73.500 93.667 73.500 L 98.167 73.500 98.167 52.667 L 98.167 31.833 93.667 31.833 L 89.167 31.833 89.167 34.389 C 89.167 37.515,89.255 37.436,87.608 35.768 C 83.518 31.623,77.541 29.757,71.573 30.760 M104.000 31.909 C 104.000 31.953,105.286 33.998,106.857 36.453 C 109.866 41.154,111.921 44.367,114.975 49.147 C 115.993 50.741,116.778 52.128,116.720 52.230 C 116.585 52.468,114.594 55.373,109.967 62.083 C 103.847 70.958,102.394 73.074,102.268 73.292 C 102.172 73.457,103.369 73.499,108.032 73.494 L 113.917 73.488 115.690 70.619 C 121.292 61.559,122.723 59.323,122.842 59.447 C 122.915 59.522,124.925 62.696,127.308 66.500 L 131.642 73.417 137.568 73.460 L 143.494 73.504 141.546 70.710 C 140.474 69.174,139.219 67.376,138.757 66.714 C 138.295 66.053,137.041 64.253,135.970 62.714 C 134.899 61.176,132.816 58.192,131.341 56.083 C 129.866 53.975,128.687 52.137,128.721 52.000 C 128.755 51.862,130.344 49.313,132.253 46.333 C 134.161 43.354,136.896 39.079,138.329 36.833 C 139.763 34.587,141.072 32.544,141.237 32.292 L 141.538 31.833 135.973 31.833 L 130.407 31.833 128.367 35.208 C 123.589 43.115,122.903 44.214,122.747 44.216 C 122.657 44.218,120.893 41.451,118.826 38.068 L 115.069 31.917 109.534 31.873 C 106.490 31.849,104.000 31.865,104.000 31.909 M79.411 39.926 C 91.644 42.435,91.994 61.824,79.870 65.352 C 70.734 68.011,62.345 59.522,64.495 49.796 C 66.122 42.441,72.168 38.440,79.411 39.926 M119.333 105.000 L 119.333 112.833 119.750 112.833 L 120.167 112.833 120.167 105.000 L 120.167 97.167 119.750 97.167 L 119.333 97.167 119.333 105.000 M273.833 104.988 L 273.833 112.833 274.252 112.833 L 274.670 112.833 274.627 105.042 L 274.583 97.250 274.208 97.197 L 273.833 97.143 273.833 104.988 " stroke="none" fill="#04a4bc" fill-rule="evenodd"></path><path id="path3" d="M194.067 18.295 C 190.057 19.728,189.129 25.063,192.423 27.748 C 196.042 30.698,201.416 28.127,201.386 23.459 C 201.361 19.680,197.606 17.030,194.067 18.295 M222.554 18.230 C 218.556 19.537,217.378 24.681,220.433 27.497 C 223.881 30.676,229.334 28.453,229.627 23.750 C 229.858 20.047,226.060 17.083,222.554 18.230 " stroke="none" fill="#b39e22" fill-rule="evenodd"></path><path id="path4" d="M31.708 17.958 C 35.994 17.983,43.006 17.983,47.292 17.958 C 51.577 17.934,48.071 17.913,39.500 17.913 C 30.929 17.913,27.423 17.934,31.708 17.958 M150.708 17.958 C 152.610 17.985,155.723 17.985,157.625 17.958 C 159.527 17.931,157.971 17.910,154.167 17.910 C 150.362 17.910,148.806 17.931,150.708 17.958 M272.792 17.958 C 274.190 17.986,276.477 17.986,277.875 17.958 C 279.273 17.930,278.129 17.907,275.333 17.907 C 272.537 17.907,271.394 17.930,272.792 17.958 M319.910 18.042 C 319.866 18.156,319.850 22.150,319.875 26.917 L 319.920 35.583 319.960 26.794 L 320.000 18.005 325.042 17.958 L 330.083 17.912 325.036 17.872 C 321.123 17.842,319.972 17.880,319.910 18.042 M163.708 18.115 C 163.869 18.157,164.131 18.157,164.292 18.115 C 164.452 18.073,164.321 18.039,164.000 18.039 C 163.679 18.039,163.548 18.073,163.708 18.115 M228.000 19.583 C 228.311 19.904,228.603 20.167,228.649 20.167 C 228.695 20.167,228.478 19.904,228.167 19.583 C 227.856 19.262,227.564 19.000,227.518 19.000 C 227.472 19.000,227.689 19.262,228.000 19.583 M228.073 27.375 L 227.583 27.917 228.125 27.427 C 228.630 26.971,228.743 26.833,228.615 26.833 C 228.586 26.833,228.342 27.077,228.073 27.375 M26.542 27.625 C 27.985 27.652,30.348 27.652,31.792 27.625 C 33.235 27.597,32.054 27.574,29.167 27.574 C 26.279 27.574,25.098 27.597,26.542 27.625 M47.208 27.625 C 48.652 27.652,51.015 27.652,52.458 27.625 C 53.902 27.597,52.721 27.574,49.833 27.574 C 46.946 27.574,45.765 27.597,47.208 27.625 M159.042 27.624 C 159.844 27.655,161.156 27.655,161.958 27.624 C 162.760 27.594,162.104 27.569,160.500 27.569 C 158.896 27.569,158.240 27.594,159.042 27.624 M257.375 30.453 C 257.627 30.491,258.040 30.491,258.292 30.453 C 258.544 30.415,258.337 30.383,257.833 30.383 C 257.329 30.383,257.123 30.415,257.375 30.453 M307.044 30.453 C 307.297 30.491,307.672 30.490,307.877 30.451 C 308.082 30.411,307.875 30.380,307.417 30.381 C 306.958 30.382,306.791 30.415,307.044 30.453 M89.037 34.401 L 89.000 37.052 88.625 36.734 L 88.250 36.417 88.571 36.796 C 89.093 37.411,89.178 37.029,89.125 34.321 L 89.074 31.750 89.037 34.401 M98.208 52.625 L 98.167 73.500 93.667 73.500 L 89.167 73.500 89.167 71.000 C 89.167 68.162,89.190 68.197,88.077 69.375 L 87.250 70.250 88.125 69.423 L 89.000 68.596 89.000 71.131 L 89.000 73.667 93.589 73.667 C 97.106 73.667,98.196 73.618,98.256 73.458 C 98.300 73.344,98.316 63.913,98.292 52.500 L 98.249 31.750 98.208 52.625 M192.375 34.958 C 193.819 34.986,196.181 34.986,197.625 34.958 C 199.069 34.930,197.887 34.908,195.000 34.908 C 192.112 34.908,190.931 34.930,192.375 34.958 M219.410 35.042 C 219.366 35.156,219.350 39.525,219.375 44.750 L 219.419 54.250 219.460 44.627 L 219.500 35.005 224.625 34.958 L 229.750 34.912 224.620 34.873 C 220.640 34.842,219.472 34.880,219.410 35.042 M87.000 35.052 C 87.000 35.081,87.244 35.325,87.542 35.594 L 88.083 36.083 87.594 35.542 C 87.138 35.037,87.000 34.923,87.000 35.052 M60.500 36.417 C 59.817 37.104,59.296 37.667,59.342 37.667 C 59.388 37.667,59.984 37.104,60.667 36.417 C 61.350 35.729,61.871 35.167,61.825 35.167 C 61.779 35.167,61.183 35.729,60.500 36.417 M243.740 35.875 L 243.250 36.417 243.792 35.927 C 244.297 35.471,244.410 35.333,244.281 35.333 C 244.252 35.333,244.009 35.577,243.740 35.875 M76.125 39.618 C 76.331 39.657,76.669 39.657,76.875 39.618 C 77.081 39.578,76.912 39.545,76.500 39.545 C 76.087 39.545,75.919 39.578,76.125 39.618 M159.050 39.624 C 159.856 39.655,161.131 39.655,161.883 39.624 C 162.635 39.593,161.975 39.568,160.417 39.568 C 158.858 39.568,158.243 39.594,159.050 39.624 M258.460 39.618 C 258.668 39.658,258.968 39.656,259.127 39.615 C 259.286 39.573,259.117 39.540,258.750 39.542 C 258.383 39.544,258.253 39.578,258.460 39.618 M307.958 39.618 C 308.165 39.657,308.502 39.657,308.708 39.618 C 308.915 39.578,308.746 39.545,308.333 39.545 C 307.921 39.545,307.752 39.578,307.958 39.618 M176.828 41.125 L 175.917 42.083 176.875 41.172 C 177.402 40.671,177.833 40.240,177.833 40.214 C 177.833 40.090,177.674 40.235,176.828 41.125 M85.000 43.083 C 85.498 43.587,85.943 44.000,85.989 44.000 C 86.034 44.000,85.665 43.587,85.167 43.083 C 84.669 42.579,84.224 42.167,84.178 42.167 C 84.132 42.167,84.502 42.579,85.000 43.083 M250.242 43.208 L 249.583 43.917 250.292 43.258 C 250.681 42.895,251.000 42.577,251.000 42.550 C 251.000 42.423,250.855 42.550,250.242 43.208 M299.833 43.250 C 299.428 43.663,299.135 44.000,299.181 44.000 C 299.226 44.000,299.595 43.663,300.000 43.250 C 300.405 42.837,300.699 42.500,300.653 42.500 C 300.607 42.500,300.238 42.837,299.833 43.250 M67.573 43.542 L 67.083 44.083 67.625 43.594 C 67.923 43.325,68.167 43.081,68.167 43.052 C 68.167 42.923,68.029 43.037,67.573 43.542 M159.375 49.291 C 160.360 49.321,161.973 49.321,162.958 49.291 C 163.944 49.262,163.137 49.237,161.167 49.237 C 159.196 49.237,158.390 49.262,159.375 49.291 M54.209 50.250 C 54.211 50.617,54.245 50.747,54.285 50.540 C 54.324 50.332,54.323 50.032,54.281 49.873 C 54.239 49.714,54.207 49.883,54.209 50.250 M286.042 51.250 C 286.044 51.617,286.078 51.747,286.118 51.540 C 286.158 51.332,286.156 51.032,286.115 50.873 C 286.073 50.714,286.040 50.883,286.042 51.250 M296.060 52.500 C 296.060 53.371,296.088 53.727,296.123 53.292 C 296.157 52.856,296.157 52.144,296.123 51.708 C 296.088 51.273,296.060 51.629,296.060 52.500 M236.372 51.833 C 236.372 52.154,236.406 52.285,236.448 52.125 C 236.490 51.965,236.490 51.702,236.448 51.542 C 236.406 51.381,236.372 51.512,236.372 51.833 M246.388 52.417 C 246.389 53.058,246.419 53.300,246.455 52.955 C 246.491 52.609,246.490 52.084,246.454 51.788 C 246.417 51.492,246.387 51.775,246.388 52.417 M88.721 52.583 C 88.722 53.225,88.752 53.467,88.788 53.121 C 88.824 52.775,88.824 52.250,88.787 51.955 C 88.750 51.659,88.721 51.942,88.721 52.583 M271.045 52.667 C 271.045 53.079,271.078 53.248,271.118 53.042 C 271.157 52.835,271.157 52.498,271.118 52.292 C 271.078 52.085,271.045 52.254,271.045 52.667 M236.372 53.667 C 236.372 53.987,236.406 54.119,236.448 53.958 C 236.490 53.798,236.490 53.535,236.448 53.375 C 236.406 53.215,236.372 53.346,236.372 53.667 M286.039 54.167 C 286.039 54.487,286.073 54.619,286.115 54.458 C 286.157 54.298,286.157 54.035,286.115 53.875 C 286.073 53.715,286.039 53.846,286.039 54.167 M54.209 54.750 C 54.211 55.117,54.245 55.247,54.285 55.040 C 54.324 54.832,54.323 54.532,54.281 54.373 C 54.239 54.214,54.207 54.383,54.209 54.750 M189.883 55.833 C 189.883 56.337,189.915 56.544,189.953 56.292 C 189.991 56.040,189.991 55.627,189.953 55.375 C 189.915 55.123,189.883 55.329,189.883 55.833 M200.205 55.500 C 200.205 55.821,200.240 55.952,200.282 55.792 C 200.323 55.631,200.323 55.369,200.282 55.208 C 200.240 55.048,200.205 55.179,200.205 55.500 M299.917 62.167 C 300.368 62.625,300.775 63.000,300.821 63.000 C 300.867 63.000,300.535 62.625,300.083 62.167 C 299.632 61.708,299.225 61.333,299.179 61.333 C 299.133 61.333,299.465 61.708,299.917 62.167 M250.250 62.167 C 250.608 62.533,250.938 62.833,250.984 62.833 C 251.030 62.833,250.775 62.533,250.417 62.167 C 250.059 61.800,249.728 61.500,249.682 61.500 C 249.637 61.500,249.892 61.800,250.250 62.167 M267.075 62.208 L 266.417 62.917 267.125 62.258 C 267.515 61.895,267.833 61.577,267.833 61.550 C 267.833 61.423,267.688 61.550,267.075 62.208 M67.333 61.719 C 67.333 61.748,67.577 61.991,67.875 62.260 L 68.417 62.750 67.927 62.208 C 67.471 61.703,67.333 61.590,67.333 61.719 M84.909 62.375 L 84.250 63.083 84.958 62.425 C 85.617 61.812,85.743 61.667,85.617 61.667 C 85.590 61.667,85.271 61.985,84.909 62.375 M316.740 62.208 L 316.250 62.750 316.792 62.260 C 317.297 61.804,317.410 61.667,317.281 61.667 C 317.252 61.667,317.009 61.910,316.740 62.208 M159.366 63.958 C 160.346 63.987,161.996 63.987,163.032 63.958 C 164.069 63.929,163.267 63.904,161.250 63.904 C 159.233 63.904,158.385 63.928,159.366 63.958 M209.129 65.122 C 209.521 65.157,210.121 65.157,210.463 65.121 C 210.804 65.085,210.483 65.057,209.750 65.057 C 209.017 65.058,208.737 65.087,209.129 65.122 M75.880 65.789 C 76.318 65.824,76.993 65.823,77.380 65.788 C 77.767 65.754,77.408 65.725,76.583 65.726 C 75.758 65.726,75.442 65.755,75.880 65.789 M258.129 65.789 C 258.521 65.824,259.121 65.824,259.463 65.788 C 259.804 65.752,259.483 65.723,258.750 65.724 C 258.017 65.724,257.737 65.754,258.129 65.789 M307.708 65.788 C 308.052 65.824,308.615 65.824,308.958 65.788 C 309.302 65.752,309.021 65.723,308.333 65.723 C 307.646 65.723,307.365 65.752,307.708 65.788 M194.833 68.583 C 195.424 69.179,195.945 69.667,195.990 69.667 C 196.036 69.667,195.591 69.179,195.000 68.583 C 194.409 67.987,193.889 67.500,193.843 67.500 C 193.797 67.500,194.243 67.987,194.833 68.583 M242.667 68.583 C 243.257 69.179,243.778 69.667,243.824 69.667 C 243.870 69.667,243.424 69.179,242.833 68.583 C 242.243 67.987,241.722 67.500,241.676 67.500 C 241.630 67.500,242.076 67.987,242.667 68.583 M291.333 67.546 C 291.333 67.571,291.915 68.152,292.625 68.838 L 293.917 70.083 292.671 68.792 C 291.514 67.592,291.333 67.424,291.333 67.546 M271.000 71.041 L 271.083 73.583 275.667 73.587 L 280.250 73.591 275.708 73.543 L 271.167 73.495 271.167 70.997 C 271.167 69.624,271.110 68.500,271.042 68.500 C 270.973 68.500,270.954 69.643,271.000 71.041 M320.401 68.692 C 320.328 68.810,320.355 68.840,320.470 68.769 C 320.605 68.685,320.671 69.341,320.704 71.118 L 320.750 73.583 325.333 73.587 L 329.917 73.591 325.375 73.543 L 320.833 73.495 320.833 70.997 C 320.833 68.686,320.734 68.154,320.401 68.692 M60.583 69.333 C 60.941 69.700,61.272 70.000,61.318 70.000 C 61.363 70.000,61.108 69.700,60.750 69.333 C 60.392 68.967,60.062 68.667,60.016 68.667 C 59.970 68.667,60.225 68.967,60.583 69.333 M318.911 70.542 L 317.917 71.583 318.958 70.589 C 319.926 69.664,320.076 69.500,319.953 69.500 C 319.927 69.500,319.459 69.969,318.911 70.542 M102.111 73.278 C 101.771 73.618,102.522 73.663,107.958 73.627 L 113.917 73.588 108.033 73.542 C 104.216 73.512,102.185 73.438,102.251 73.331 C 102.367 73.144,102.278 73.111,102.111 73.278 M131.644 73.544 C 131.714 73.614,134.429 73.651,137.677 73.627 L 143.583 73.583 137.550 73.500 C 134.231 73.454,131.574 73.474,131.644 73.544 M36.875 73.625 C 38.319 73.652,40.681 73.652,42.125 73.625 C 43.569 73.597,42.387 73.574,39.500 73.574 C 36.612 73.574,35.431 73.597,36.875 73.625 M151.625 73.625 C 154.031 73.651,157.969 73.651,160.375 73.625 C 162.781 73.599,160.813 73.578,156.000 73.578 C 151.188 73.578,149.219 73.599,151.625 73.625 M346.694 74.757 C 346.414 75.370,346.468 75.501,346.770 74.944 C 346.911 74.683,346.995 74.439,346.957 74.401 C 346.919 74.363,346.800 74.523,346.694 74.757 M209.208 74.788 C 209.552 74.824,210.115 74.824,210.458 74.788 C 210.802 74.752,210.521 74.723,209.833 74.723 C 209.146 74.723,208.865 74.752,209.208 74.788 M73.713 74.956 C 74.152 74.990,74.827 74.990,75.213 74.955 C 75.600 74.920,75.242 74.892,74.417 74.892 C 73.592 74.893,73.275 74.922,73.713 74.956 M256.458 74.951 C 256.665 74.991,257.002 74.991,257.208 74.951 C 257.415 74.911,257.246 74.879,256.833 74.879 C 256.421 74.879,256.252 74.911,256.458 74.951 M258.211 74.953 C 258.464 74.991,258.839 74.990,259.044 74.951 C 259.249 74.911,259.042 74.880,258.583 74.881 C 258.125 74.882,257.957 74.915,258.211 74.953 M306.125 74.951 C 306.331 74.991,306.669 74.991,306.875 74.951 C 307.081 74.911,306.912 74.879,306.500 74.879 C 306.087 74.879,305.919 74.911,306.125 74.951 M307.958 74.951 C 308.165 74.991,308.502 74.991,308.708 74.951 C 308.915 74.911,308.746 74.879,308.333 74.879 C 307.921 74.879,307.752 74.911,307.958 74.951 M120.244 105.000 C 120.244 109.354,120.265 111.135,120.292 108.958 C 120.318 106.781,120.318 103.219,120.292 101.042 C 120.265 98.865,120.244 100.646,120.244 105.000 M273.744 105.000 C 273.744 109.354,273.765 111.135,273.792 108.958 C 273.818 106.781,273.818 103.219,273.792 101.042 C 273.765 98.865,273.744 100.646,273.744 105.000 M274.667 104.967 L 274.750 112.750 274.793 105.093 C 274.817 100.882,274.780 97.380,274.710 97.310 C 274.640 97.240,274.621 100.686,274.667 104.967 M253.659 98.546 C 253.740 99.233,253.743 99.236,253.800 98.687 C 253.832 98.378,253.794 98.061,253.716 97.983 C 253.639 97.906,253.613 98.159,253.659 98.546 M299.000 97.952 C 299.137 98.003,299.400 98.114,299.583 98.198 C 299.911 98.349,299.911 98.348,299.593 98.093 C 299.415 97.950,299.153 97.839,299.010 97.846 C 298.785 97.858,298.784 97.872,299.000 97.952 M340.333 101.633 L 340.416 105.417 340.461 101.762 C 340.486 99.751,340.449 98.049,340.378 97.978 C 340.308 97.907,340.287 99.552,340.333 101.633 M347.666 101.883 L 347.750 105.917 347.795 102.011 C 347.819 99.864,347.782 98.049,347.711 97.978 C 347.641 97.907,347.621 99.665,347.666 101.883 M39.206 103.542 L 39.167 109.167 39.875 109.139 L 40.583 109.111 39.961 109.045 L 39.338 108.980 39.292 103.448 L 39.245 97.917 39.206 103.542 M82.079 102.917 L 82.083 107.917 84.209 107.924 L 86.334 107.932 84.253 107.878 L 82.172 107.823 82.124 102.870 L 82.076 97.917 82.079 102.917 M93.373 103.542 L 93.333 109.167 96.375 109.129 L 99.417 109.092 96.461 109.042 L 93.504 108.992 93.458 103.454 L 93.412 97.917 93.373 103.542 M196.572 102.000 C 196.572 104.246,196.596 105.165,196.625 104.042 C 196.653 102.919,196.653 101.081,196.625 99.958 C 196.596 98.835,196.572 99.754,196.572 102.000 M233.230 98.583 L 233.250 99.250 234.833 99.260 L 236.417 99.271 234.885 99.213 L 233.353 99.154 233.281 98.536 L 233.210 97.917 233.230 98.583 M247.873 103.542 L 247.833 109.167 250.833 109.167 L 253.833 109.167 253.833 108.500 L 253.833 107.833 251.458 107.870 L 249.083 107.906 251.375 107.958 L 253.667 108.009 253.667 108.505 L 253.667 109.000 250.836 109.000 L 248.004 109.000 247.958 103.458 L 247.912 97.917 247.873 103.542 M339.071 101.750 C 339.072 103.858,339.095 104.698,339.125 103.616 C 339.154 102.533,339.154 100.808,339.124 99.782 C 339.095 98.756,339.071 99.642,339.071 101.750 M346.405 101.917 C 346.405 104.117,346.429 104.994,346.458 103.865 C 346.487 102.737,346.487 100.937,346.458 99.865 C 346.429 98.794,346.405 99.717,346.405 101.917 M355.873 103.551 L 355.833 109.186 356.542 109.135 L 357.250 109.083 357.256 106.500 L 357.263 103.917 357.210 106.458 L 357.158 109.000 356.581 109.000 L 356.004 109.000 355.958 103.458 L 355.912 97.917 355.873 103.551 M295.351 98.756 C 295.066 99.080,294.836 99.436,294.838 99.547 C 294.841 99.659,294.926 99.600,295.027 99.417 C 295.129 99.233,295.403 98.877,295.637 98.625 C 295.871 98.373,296.019 98.167,295.965 98.167 C 295.912 98.167,295.635 98.432,295.351 98.756 M156.946 99.359 L 156.083 100.219 157.000 99.412 C 157.504 98.969,157.948 98.582,157.986 98.553 C 158.024 98.524,158.000 98.500,157.932 98.500 C 157.864 98.500,157.420 98.887,156.946 99.359 M173.779 99.359 L 172.917 100.219 173.833 99.412 C 174.338 98.969,174.781 98.582,174.819 98.553 C 174.858 98.524,174.833 98.500,174.765 98.500 C 174.697 98.500,174.254 98.887,173.779 99.359 M29.083 99.028 C 29.267 99.130,29.533 99.297,29.675 99.398 C 29.817 99.500,29.756 99.415,29.541 99.208 C 29.325 99.002,29.059 98.836,28.949 98.838 C 28.840 98.841,28.900 98.927,29.083 99.028 M160.794 98.951 C 161.001 98.991,161.301 98.990,161.460 98.948 C 161.620 98.906,161.450 98.874,161.083 98.875 C 160.717 98.877,160.586 98.911,160.794 98.951 M177.627 98.951 C 177.834 98.991,178.134 98.990,178.294 98.948 C 178.453 98.906,178.283 98.874,177.917 98.875 C 177.550 98.877,177.420 98.911,177.627 98.951 M327.460 98.951 C 327.668 98.991,327.968 98.990,328.127 98.948 C 328.286 98.906,328.117 98.874,327.750 98.875 C 327.383 98.877,327.253 98.911,327.460 98.951 M361.606 99.250 C 361.992 99.908,362.000 99.918,362.000 99.713 C 362.000 99.616,361.846 99.360,361.657 99.143 L 361.314 98.750 361.606 99.250 M181.528 99.645 C 181.502 100.314,181.476 100.355,181.208 100.145 C 180.942 99.937,180.937 99.943,181.151 100.215 C 181.484 100.639,181.702 100.336,181.623 99.564 L 181.556 98.917 181.528 99.645 M207.369 100.958 L 207.405 102.917 207.458 101.049 L 207.511 99.182 208.547 99.123 L 209.583 99.064 208.458 99.032 L 207.333 99.000 207.369 100.958 M357.202 100.958 L 357.238 102.917 357.291 101.049 L 357.344 99.182 358.380 99.123 L 359.417 99.064 358.292 99.032 L 357.167 99.000 357.202 100.958 M94.740 100.791 L 94.750 102.417 97.042 102.424 L 99.334 102.431 97.090 102.378 L 94.845 102.324 94.788 100.745 L 94.731 99.166 94.740 100.791 M209.847 99.217 C 209.885 99.245,210.142 99.399,210.417 99.560 L 210.917 99.853 210.523 99.510 C 210.307 99.321,210.051 99.167,209.954 99.167 C 209.857 99.167,209.809 99.189,209.847 99.217 M237.667 104.074 L 237.667 108.981 236.958 109.045 L 236.250 109.108 237.042 109.138 L 237.833 109.167 237.833 104.256 L 237.833 99.346 239.375 99.291 L 240.917 99.236 239.292 99.201 L 237.667 99.167 237.667 104.074 M309.907 100.791 L 309.917 102.417 312.209 102.424 L 314.500 102.431 312.256 102.378 L 310.012 102.324 309.955 100.745 L 309.898 99.166 309.907 100.791 M371.074 100.791 L 371.083 102.417 373.375 102.424 L 375.667 102.431 373.423 102.378 L 371.179 102.324 371.121 100.745 L 371.064 99.166 371.074 100.791 M360.333 99.667 C 360.517 99.850,360.673 100.131,360.680 100.292 C 360.688 100.475,360.725 100.504,360.779 100.370 C 360.877 100.125,360.407 99.333,360.163 99.333 C 360.073 99.333,360.150 99.483,360.333 99.667 M157.824 100.292 L 157.250 100.917 157.875 100.342 C 158.457 99.808,158.577 99.667,158.449 99.667 C 158.422 99.667,158.140 99.948,157.824 100.292 M174.658 100.292 L 174.083 100.917 174.708 100.342 C 175.290 99.808,175.410 99.667,175.283 99.667 C 175.255 99.667,174.974 99.948,174.658 100.292 M296.039 100.500 C 296.039 100.821,296.073 100.952,296.115 100.792 C 296.157 100.631,296.157 100.369,296.115 100.208 C 296.073 100.048,296.039 100.179,296.039 100.500 M73.550 101.000 C 73.550 101.504,73.581 101.710,73.619 101.458 C 73.658 101.206,73.658 100.794,73.619 100.542 C 73.581 100.290,73.550 100.496,73.550 101.000 M155.742 100.849 C 155.595 101.132,155.505 101.394,155.541 101.430 C 155.577 101.466,155.732 101.234,155.884 100.915 C 156.227 100.196,156.108 100.141,155.742 100.849 M211.039 101.000 C 211.039 101.321,211.073 101.452,211.115 101.292 C 211.157 101.131,211.157 100.869,211.115 100.708 C 211.073 100.548,211.039 100.679,211.039 101.000 M26.986 101.561 C 27.208 101.834,27.833 102.247,27.833 102.121 C 27.833 102.089,27.590 101.884,27.292 101.666 C 26.956 101.421,26.840 101.381,26.986 101.561 M361.833 102.293 C 361.833 102.393,361.590 102.717,361.293 103.015 C 360.944 103.364,360.877 103.489,361.103 103.367 C 361.503 103.153,362.075 102.352,361.930 102.208 C 361.877 102.155,361.833 102.193,361.833 102.293 M251.375 102.458 L 253.667 102.509 253.667 103.000 L 253.667 103.491 251.375 103.542 L 249.083 103.594 251.458 103.630 L 253.833 103.667 253.833 103.000 L 253.833 102.333 251.458 102.370 L 249.083 102.406 251.375 102.458 M156.552 103.583 C 156.553 104.133,156.584 104.338,156.621 104.039 C 156.658 103.739,156.657 103.289,156.619 103.039 C 156.581 102.788,156.551 103.033,156.552 103.583 M173.385 103.583 C 173.386 104.133,173.417 104.338,173.454 104.039 C 173.491 103.739,173.490 103.289,173.452 103.039 C 173.414 102.788,173.384 103.033,173.385 103.583 M209.208 102.782 C 209.369 102.823,209.631 102.823,209.792 102.782 C 209.952 102.740,209.821 102.705,209.500 102.705 C 209.179 102.705,209.048 102.740,209.208 102.782 M296.143 102.990 C 296.360 103.179,296.616 103.333,296.713 103.333 C 296.918 103.333,296.908 103.325,296.250 102.940 L 295.750 102.647 296.143 102.990 M359.042 102.782 C 359.202 102.823,359.465 102.823,359.625 102.782 C 359.785 102.740,359.654 102.705,359.333 102.705 C 359.012 102.705,358.881 102.740,359.042 102.782 M69.042 102.953 C 69.294 102.991,69.706 102.991,69.958 102.953 C 70.210 102.915,70.004 102.883,69.500 102.883 C 68.996 102.883,68.790 102.915,69.042 102.953 M30.915 103.834 C 31.706 104.757,31.717 104.768,31.536 104.417 C 31.441 104.233,31.151 103.896,30.890 103.667 L 30.417 103.251 30.915 103.834 M300.415 103.834 C 301.206 104.757,301.217 104.768,301.036 104.417 C 300.941 104.233,300.651 103.896,300.390 103.667 L 299.917 103.251 300.415 103.834 M94.739 103.718 C 94.693 103.838,94.677 104.832,94.703 105.926 L 94.750 107.917 97.042 107.924 L 99.334 107.931 97.084 107.878 L 94.833 107.824 94.833 105.750 L 94.833 103.676 97.125 103.625 L 99.417 103.573 97.120 103.537 C 95.355 103.508,94.803 103.551,94.739 103.718 M297.667 103.750 C 297.896 103.881,298.158 103.988,298.250 103.988 C 298.342 103.988,298.229 103.881,298.000 103.750 C 297.771 103.619,297.508 103.512,297.417 103.512 C 297.325 103.512,297.438 103.619,297.667 103.750 M309.906 103.718 C 309.860 103.838,309.843 104.832,309.869 105.926 L 309.917 107.917 312.209 107.924 L 314.500 107.931 312.250 107.878 L 310.000 107.824 310.000 105.750 L 310.000 103.676 312.292 103.625 L 314.583 103.573 312.286 103.537 C 310.522 103.508,309.970 103.551,309.906 103.718 M371.073 103.718 C 371.027 103.838,371.010 104.832,371.036 105.926 L 371.083 107.917 373.375 107.924 L 375.667 107.931 373.417 107.878 L 371.167 107.824 371.167 105.750 L 371.167 103.676 373.458 103.625 L 375.750 103.573 373.453 103.537 C 371.688 103.508,371.137 103.551,371.073 103.718 M207.333 106.407 L 207.333 108.980 206.708 109.045 L 206.083 109.111 206.792 109.139 L 207.500 109.167 207.500 106.500 C 207.500 105.033,207.463 103.833,207.417 103.833 C 207.371 103.833,207.333 104.991,207.333 106.407 M359.398 104.549 C 359.751 104.981,360.075 105.333,360.117 105.333 C 360.231 105.333,359.176 104.025,358.949 103.885 C 358.843 103.819,359.045 104.118,359.398 104.549 M69.296 104.122 C 69.688 104.157,70.288 104.157,70.629 104.121 C 70.971 104.085,70.650 104.057,69.917 104.057 C 69.183 104.058,68.904 104.087,69.296 104.122 M298.583 104.106 C 298.675 104.187,299.012 104.477,299.333 104.751 L 299.915 105.250 299.499 104.776 C 299.271 104.516,298.933 104.225,298.750 104.131 C 298.567 104.036,298.492 104.025,298.583 104.106 M142.449 104.273 C 142.165 104.557,142.668 104.667,144.260 104.667 C 145.217 104.667,146.000 104.610,146.000 104.542 C 146.001 104.473,145.206 104.440,144.234 104.469 C 143.013 104.506,142.501 104.467,142.577 104.344 C 142.697 104.149,142.618 104.105,142.449 104.273 M221.782 104.273 C 221.498 104.557,222.001 104.667,223.593 104.667 C 224.550 104.667,225.333 104.610,225.334 104.542 C 225.334 104.473,224.539 104.440,223.567 104.469 C 222.346 104.506,221.834 104.467,221.910 104.344 C 222.031 104.149,221.951 104.105,221.782 104.273 M357.996 104.662 C 358.190 104.934,358.434 105.209,358.538 105.273 C 358.642 105.338,358.517 105.115,358.260 104.779 C 357.703 104.048,357.493 103.955,357.996 104.662 M210.498 105.664 C 210.788 106.030,211.111 106.383,211.218 106.448 C 211.324 106.514,211.122 106.215,210.769 105.784 C 210.416 105.353,210.092 105.000,210.049 105.000 C 210.007 105.000,210.209 105.299,210.498 105.664 M359.073 106.055 C 359.330 106.391,359.573 106.667,359.614 106.667 C 359.730 106.667,359.009 105.692,358.795 105.560 C 358.691 105.496,358.816 105.718,359.073 106.055 M30.539 106.167 C 30.539 106.487,30.573 106.619,30.615 106.458 C 30.657 106.298,30.657 106.035,30.615 105.875 C 30.573 105.715,30.539 105.846,30.539 106.167 M141.942 105.792 C 141.899 105.860,142.588 105.897,143.474 105.873 C 146.326 105.794,146.640 105.727,144.302 105.697 C 143.046 105.680,141.985 105.723,141.942 105.792 M221.278 105.778 C 221.217 105.839,221.168 105.970,221.169 106.069 C 221.171 106.180,221.222 106.171,221.301 106.047 C 221.389 105.908,222.140 105.827,223.673 105.791 L 225.917 105.739 223.653 105.703 C 222.408 105.683,221.339 105.717,221.278 105.778 M324.417 106.833 C 324.775 107.200,325.105 107.500,325.151 107.500 C 325.197 107.500,324.941 107.200,324.583 106.833 C 324.225 106.467,323.895 106.167,323.849 106.167 C 323.803 106.167,324.059 106.467,324.417 106.833 M157.333 106.385 C 157.333 106.414,157.577 106.658,157.875 106.927 L 158.417 107.417 157.927 106.875 C 157.471 106.370,157.333 106.257,157.333 106.385 M174.167 106.385 C 174.167 106.414,174.410 106.658,174.708 106.927 L 175.250 107.417 174.760 106.875 C 174.304 106.370,174.167 106.257,174.167 106.385 M164.073 107.042 L 163.583 107.583 164.125 107.094 C 164.423 106.825,164.667 106.581,164.667 106.552 C 164.667 106.423,164.529 106.537,164.073 107.042 M180.906 107.042 L 180.417 107.583 180.958 107.094 L 181.500 106.604 181.500 107.352 C 181.500 107.763,181.406 108.205,181.292 108.334 C 181.114 108.532,181.127 108.534,181.375 108.347 C 181.583 108.189,181.667 107.892,181.667 107.313 C 181.667 106.355,181.561 106.317,180.906 107.042 M209.996 106.995 C 210.190 107.267,210.434 107.543,210.538 107.607 C 210.642 107.671,210.517 107.448,210.260 107.112 C 209.703 106.381,209.493 106.288,209.996 106.995 M345.850 107.051 C 345.737 107.263,345.443 107.561,345.197 107.714 C 344.951 107.866,344.838 107.993,344.946 107.996 C 345.174 108.001,346.167 107.046,346.167 106.821 C 346.167 106.571,346.070 106.642,345.850 107.051 M30.037 107.465 L 29.658 108.083 30.079 107.616 C 30.311 107.359,30.500 107.077,30.500 106.991 C 30.500 106.746,30.444 106.803,30.037 107.465 M323.417 107.667 C 323.775 108.033,324.105 108.333,324.151 108.333 C 324.197 108.333,323.941 108.033,323.583 107.667 C 323.225 107.300,322.895 107.000,322.849 107.000 C 322.803 107.000,323.059 107.300,323.417 107.667 M156.333 107.219 C 156.333 107.248,156.577 107.491,156.875 107.760 L 157.417 108.250 156.927 107.708 C 156.471 107.203,156.333 107.090,156.333 107.219 M362.151 107.940 C 362.996 109.000,362.999 108.969,362.042 109.044 C 361.264 109.106,361.267 109.107,362.214 109.137 C 363.335 109.172,363.332 109.105,362.160 107.833 L 361.468 107.083 362.151 107.940 M296.370 107.755 C 296.619 108.018,296.853 108.199,296.890 108.158 C 296.926 108.117,296.722 107.902,296.436 107.681 L 295.917 107.279 296.370 107.755 M346.872 107.929 C 346.665 108.243,346.530 108.500,346.570 108.500 C 346.686 108.500,347.377 107.488,347.308 107.419 C 347.274 107.385,347.078 107.614,346.872 107.929 M139.527 108.090 C 139.248 108.703,139.301 108.834,139.603 108.277 C 139.744 108.017,139.828 107.773,139.790 107.735 C 139.752 107.696,139.634 107.857,139.527 108.090 M294.807 107.919 C 294.980 108.277,295.425 108.705,295.833 108.906 C 295.971 108.974,295.904 108.883,295.685 108.704 C 295.466 108.526,295.142 108.201,294.965 107.982 C 294.722 107.679,294.683 107.664,294.807 107.919 M148.678 107.917 C 148.678 108.008,148.786 108.271,148.917 108.500 C 149.048 108.729,149.155 108.842,149.155 108.750 C 149.155 108.658,149.048 108.396,148.917 108.167 C 148.786 107.938,148.678 107.825,148.678 107.917 M190.334 108.224 C 190.563 108.484,190.900 108.775,191.083 108.869 C 191.434 109.050,191.424 109.039,190.501 108.249 L 189.918 107.750 190.334 108.224 M300.167 108.525 C 299.846 108.806,299.734 108.960,299.919 108.867 C 300.223 108.713,300.978 107.991,300.817 108.007 C 300.780 108.010,300.487 108.244,300.167 108.525 M25.653 108.394 C 25.875 108.667,26.500 109.080,26.500 108.954 C 26.500 108.922,26.256 108.718,25.958 108.499 C 25.623 108.254,25.507 108.214,25.653 108.394 M28.127 108.285 C 28.334 108.324,28.634 108.323,28.794 108.281 C 28.953 108.239,28.783 108.207,28.417 108.209 C 28.050 108.211,27.920 108.245,28.127 108.285 M297.458 108.284 C 297.665 108.324,298.002 108.324,298.208 108.284 C 298.415 108.245,298.246 108.212,297.833 108.212 C 297.421 108.212,297.252 108.245,297.458 108.284 M58.723 108.667 C 58.750 109.076,60.167 109.449,60.167 109.047 C 60.167 108.970,59.873 108.936,59.514 108.970 C 58.940 109.025,58.851 108.985,58.778 108.641 C 58.699 108.267,58.697 108.269,58.723 108.667 M147.511 108.426 C 147.480 108.915,147.936 109.189,148.673 109.124 L 149.417 109.058 148.650 109.029 C 148.037 109.006,147.848 108.925,147.703 108.625 C 147.604 108.419,147.517 108.329,147.511 108.426 M211.167 108.437 C 211.167 108.884,211.801 109.186,212.607 109.123 L 213.417 109.060 212.551 109.030 C 211.866 109.006,211.631 108.923,211.426 108.630 C 211.283 108.426,211.167 108.339,211.167 108.437 M49.000 108.823 C 49.000 108.909,48.719 109.009,48.375 109.045 L 47.750 109.111 48.458 109.139 C 48.989 109.160,49.167 109.104,49.167 108.917 C 49.167 108.779,49.129 108.667,49.083 108.667 C 49.038 108.667,49.000 108.737,49.000 108.823 M139.167 109.033 C 139.167 109.107,139.523 109.161,139.958 109.154 C 140.830 109.139,140.759 109.058,139.792 108.962 C 139.448 108.928,139.167 108.960,139.167 109.033 M218.500 109.033 C 218.500 109.107,218.856 109.161,219.292 109.154 C 220.163 109.139,220.093 109.058,219.125 108.962 C 218.781 108.928,218.500 108.960,218.500 109.033 M227.152 109.052 C 227.227 109.127,227.617 109.163,228.019 109.133 L 228.750 109.077 227.883 108.997 C 227.406 108.953,227.077 108.978,227.152 109.052 M67.625 109.118 C 67.831 109.157,68.169 109.157,68.375 109.118 C 68.581 109.078,68.412 109.045,68.000 109.045 C 67.587 109.045,67.419 109.078,67.625 109.118 M82.217 109.124 C 83.023 109.155,84.298 109.155,85.050 109.124 C 85.802 109.093,85.142 109.068,83.583 109.068 C 82.025 109.068,81.410 109.094,82.217 109.124 M310.033 109.124 C 310.831 109.154,312.181 109.155,313.033 109.124 C 313.886 109.094,313.233 109.069,311.583 109.069 C 309.933 109.069,309.236 109.093,310.033 109.124 M371.200 109.124 C 371.997 109.154,373.347 109.155,374.200 109.124 C 375.052 109.094,374.400 109.069,372.750 109.069 C 371.100 109.069,370.402 109.093,371.200 109.124 M160.627 109.451 C 160.834 109.491,161.134 109.490,161.294 109.448 C 161.453 109.406,161.283 109.374,160.917 109.375 C 160.550 109.377,160.420 109.411,160.627 109.451 M177.460 109.451 C 177.668 109.491,177.968 109.490,178.127 109.448 C 178.286 109.406,178.117 109.374,177.750 109.375 C 177.383 109.377,177.253 109.411,177.460 109.451 M193.292 109.451 C 193.498 109.491,193.835 109.491,194.042 109.451 C 194.248 109.411,194.079 109.379,193.667 109.379 C 193.254 109.379,193.085 109.411,193.292 109.451 M327.294 109.451 C 327.501 109.491,327.801 109.490,327.960 109.448 C 328.120 109.406,327.950 109.374,327.583 109.375 C 327.217 109.377,327.086 109.411,327.294 109.451 M343.127 109.451 C 343.334 109.491,343.634 109.490,343.794 109.448 C 343.953 109.406,343.783 109.374,343.417 109.375 C 343.050 109.377,342.920 109.411,343.127 109.451 " stroke="none" fill="#9ab4bc" fill-rule="evenodd"></path></g></svg>