<svg width="24" height="24" viewBox="0 0 24 24" fill="none" xmlns="http://www.w3.org/2000/svg">
<path d="M2.9999 8.24967C2.99979 7.37948 3.21599 6.52291 3.62904 5.757C4.0421 4.99109 4.63905 4.33986 5.36622 3.86189C6.09339 3.38392 6.92797 3.0942 7.79489 3.01878C8.6618 2.94336 9.53387 3.08461 10.3327 3.42983C11.1314 3.77505 11.8319 4.31341 12.371 4.99648C12.9101 5.67956 13.271 6.48593 13.4211 7.34307C13.5713 8.2002 13.5061 9.08123 13.2313 9.90689C12.9565 10.7326 12.4808 11.477 11.8469 12.0732C13.0421 12.6532 14.0798 13.5128 14.8721 14.5792C15.6643 15.6457 16.1877 16.8874 16.3979 18.1992C16.421 18.3451 16.4152 18.4942 16.3807 18.6379C16.3463 18.7816 16.2838 18.9172 16.197 19.0367C16.1101 19.1563 16.0006 19.2576 15.8746 19.3349C15.7486 19.4121 15.6086 19.4638 15.4626 19.4869C15.3167 19.5101 15.1676 19.5042 15.0239 19.4698C14.8802 19.4353 14.7447 19.3728 14.6251 19.286C14.5055 19.1992 14.4042 19.0896 14.327 18.9636C14.2497 18.8376 14.198 18.6976 14.1749 18.5517C13.9499 17.1421 13.2298 15.859 12.1438 14.9326C11.0579 14.0063 9.67728 13.4974 8.2499 13.4974C6.82251 13.4974 5.44189 14.0063 4.35594 14.9326C3.27 15.859 2.54988 17.1421 2.3249 18.5517C2.30165 18.6976 2.24989 18.8376 2.17255 18.9635C2.09522 19.0895 1.99384 19.199 1.87419 19.2858C1.75454 19.3726 1.61897 19.4349 1.47522 19.4693C1.33147 19.5037 1.18236 19.5094 1.0364 19.4862C0.890431 19.4629 0.750475 19.4112 0.624516 19.3338C0.498558 19.2565 0.389065 19.1551 0.302288 19.0355C0.215512 18.9158 0.153152 18.7802 0.118768 18.6365C0.084385 18.4927 0.0786516 18.3436 0.101896 18.1977C0.312398 16.8864 0.835958 15.6452 1.62819 14.5793C2.42043 13.5134 3.45798 12.6543 4.6529 12.0747C4.1304 11.5841 3.71412 10.9915 3.4298 10.3336C3.14548 9.67565 2.99916 8.96639 2.9999 8.24967ZM16.4999 5.99967C17.3714 6.00028 18.224 6.25386 18.9542 6.72964C19.6844 7.20542 20.2608 7.88294 20.6134 8.67994C20.966 9.47695 21.0796 10.3592 20.9406 11.2195C20.8015 12.0799 20.4157 12.8814 19.8299 13.5267C20.7429 13.9799 21.5542 14.6142 22.2143 15.3909C22.8745 16.1676 23.3697 17.0705 23.6699 18.0447C23.7294 18.2338 23.7377 18.4352 23.6941 18.6286C23.6506 18.822 23.5566 19.0004 23.4218 19.1458C23.287 19.2911 23.1161 19.3981 22.9265 19.4561C22.737 19.514 22.5354 19.5208 22.3424 19.4757C22.1495 19.4307 21.9719 19.3358 21.8273 19.2005C21.6828 19.0652 21.5764 18.8942 21.5189 18.7047C21.2501 17.835 20.7602 17.0499 20.0971 16.4263C19.434 15.8026 18.6204 15.3617 17.7359 15.1467C17.4903 15.0874 17.2717 14.9471 17.1155 14.7485C16.9593 14.5498 16.8746 14.3044 16.8749 14.0517V13.5237C16.8748 13.3142 16.9331 13.1089 17.0433 12.9308C17.1536 12.7527 17.3114 12.6089 17.4989 12.5157C17.9536 12.2903 18.3188 11.9178 18.5352 11.4587C18.7515 10.9996 18.8062 10.4808 18.6905 9.98665C18.5748 9.49249 18.2954 9.05197 17.8977 8.73664C17.5 8.42131 17.0074 8.2497 16.4999 8.24967C16.2015 8.24967 15.9154 8.13114 15.7044 7.92017C15.4934 7.70919 15.3749 7.42304 15.3749 7.12467C15.3749 6.8263 15.4934 6.54015 15.7044 6.32918C15.9154 6.1182 16.2015 5.99967 16.4999 5.99967ZM8.2499 5.24967C7.85039 5.24064 7.4531 5.31151 7.08136 5.45813C6.70962 5.60475 6.37091 5.82416 6.08514 6.10348C5.79936 6.3828 5.57226 6.71639 5.41719 7.08469C5.26211 7.45298 5.18217 7.84854 5.18207 8.24815C5.18197 8.64776 5.26171 9.04337 5.4166 9.41174C5.5715 9.78011 5.79842 10.1138 6.08406 10.3933C6.3697 10.6727 6.7083 10.8923 7.07996 11.0391C7.45163 11.1859 7.84888 11.257 8.2484 11.2482C9.03224 11.2308 9.77815 10.9073 10.3265 10.3469C10.8748 9.78649 11.1819 9.03369 11.1821 8.24965C11.1823 7.46562 10.8755 6.71266 10.3275 6.15197C9.77948 5.59127 9.03373 5.2674 8.2499 5.24967Z" fill="white"/>
</svg>
