<svg width="22" height="22" viewBox="0 0 22 22" fill="none" xmlns="http://www.w3.org/2000/svg">
<path d="M20.7099 7.70968C21.9599 6.45968 21.3899 4.99968 20.7099 4.28968L17.7099 1.28968C16.4499 0.0396849 14.9999 0.609685 14.2899 1.28968L12.5899 2.99968H9.99993C8.09993 2.99968 6.99993 3.99968 6.43993 5.14968L1.99993 9.58969V13.5897L1.28993 14.2897C0.039929 15.5497 0.609929 16.9997 1.28993 17.7097L4.28993 20.7097C4.82993 21.2497 5.40993 21.4497 5.95993 21.4497C6.66993 21.4497 7.31993 21.0997 7.70993 20.7097L10.4099 17.9997H13.9999C15.6999 17.9997 16.5599 16.9397 16.8699 15.8997C17.9999 15.5997 18.6199 14.7397 18.8699 13.8997C20.4199 13.4997 20.9999 12.0297 20.9999 10.9997V7.99968H20.4099L20.7099 7.70968ZM18.9999 10.9997C18.9999 11.4497 18.8099 11.9997 17.9999 11.9997H16.9999V12.9997C16.9999 13.4497 16.8099 13.9997 15.9999 13.9997H14.9999V14.9997C14.9999 15.4497 14.8099 15.9997 13.9999 15.9997H9.58993L6.30993 19.2797C5.99993 19.5697 5.81993 19.3997 5.70993 19.2897L2.71993 16.3097C2.42993 15.9997 2.59993 15.8197 2.70993 15.7097L3.99993 14.4097V10.4097L5.99993 8.40968V9.99969C5.99993 11.2097 6.79993 12.9997 8.99993 12.9997C11.1999 12.9997 11.9999 11.2097 11.9999 9.99969H18.9999V10.9997ZM19.2899 6.28968L17.5899 7.99968H9.99993V9.99969C9.99993 10.4497 9.80993 10.9997 8.99993 10.9997C8.18993 10.9997 7.99993 10.4497 7.99993 9.99969V6.99968C7.99993 6.53968 8.16993 4.99968 9.99993 4.99968H13.4099L15.6899 2.71968C15.9999 2.42968 16.1799 2.59968 16.2899 2.70968L19.2799 5.68968C19.5699 5.99968 19.3999 6.17968 19.2899 6.28968Z" fill="white"/>
</svg>
