<svg width="24" height="24" viewBox="0 0 24 24" fill="none" xmlns="http://www.w3.org/2000/svg">
<path d="M5.5 22.5V23H6H17.5V23.5H5V21V20.5H4.5H2V0.5H11.3593L15.9238 5.06449L20.5 9.6407V10H14V4.5V4H13.5H6H5.5V4.5V22.5ZM14.5 9V9.5H15H18.4336H19.6407L18.7871 8.64645L15.3536 5.21285L14.5 4.3593V5.56641V9ZM4.5 20H5V19.5V3.5H12.4336H13.6407L12.7871 2.64645L11.2871 1.14645L11.1407 1H10.9336H3H2.5V1.5V19.5V20H3H4.5ZM20.5 17.5664V23.5H20V17.5664V16.3645L19.1475 17.2118L17.5909 18.7588L17.2423 18.4102L20.25 15.4024L23.2577 18.4102L22.9091 18.7588L21.3525 17.2118L20.5 16.3645V17.5664ZM23.5 12.5V13H17V12.5H23.5Z" fill="white" stroke="white"/>
</svg>
