<svg width="24" height="24" viewBox="0 0 24 24" fill="none" xmlns="http://www.w3.org/2000/svg">
<path d="M12.9268 9.57322C12.9737 9.62011 13 9.6837 13 9.75C13 9.8163 12.9737 9.87989 12.9268 9.92678C12.8799 9.97366 12.8163 10 12.75 10H6.75C6.6837 10 6.62011 9.97366 6.57322 9.92678C6.52634 9.87989 6.5 9.8163 6.5 9.75C6.5 9.6837 6.52634 9.62011 6.57322 9.57322C6.62011 9.52634 6.6837 9.5 6.75 9.5H12.75C12.8163 9.5 12.8799 9.52634 12.9268 9.57322ZM11.9268 12.5732C11.9737 12.6201 12 12.6837 12 12.75C12 12.8163 11.9737 12.8799 11.9268 12.9268C11.8799 12.9737 11.8163 13 11.75 13H6.75C6.6837 13 6.62011 12.9737 6.57322 12.9268C6.52634 12.8799 6.5 12.8163 6.5 12.75C6.5 12.6837 6.52634 12.6201 6.57322 12.5732C6.62011 12.5263 6.6837 12.5 6.75 12.5H11.75C11.8163 12.5 11.8799 12.5263 11.9268 12.5732ZM12.75 15.5C12.8163 15.5 12.8799 15.5263 12.9268 15.5732C12.9737 15.6201 13 15.6837 13 15.75C13 15.8163 12.9737 15.8799 12.9268 15.9268C12.8799 15.9737 12.8163 16 12.75 16H6.75C6.6837 16 6.62011 15.9737 6.57322 15.9268C6.52634 15.8799 6.5 15.8163 6.5 15.75C6.5 15.6837 6.52634 15.6201 6.57322 15.5732C6.62011 15.5263 6.6837 15.5 6.75 15.5H12.75Z" fill="white" stroke="white"/>
<path d="M7.814 3.63988L8.10392 4.04724C8.65763 3.65316 9.32037 3.44141 10 3.44141C10.6794 3.44141 11.342 3.65304 11.8956 4.04688C12.3625 4.3804 12.9218 4.56011 13.4956 4.56098C14.0695 4.56186 14.6294 4.3838 15.0974 4.0516L15.0986 4.05074L15.2736 3.92577C15.2736 3.92576 15.2736 3.92575 15.2736 3.92574C16.1007 3.3351 17.25 3.92661 17.25 4.94287V12.7499V13.2499H17.75H21C21.0663 13.2499 21.1299 13.2762 21.1768 13.3231C21.2237 13.37 21.25 13.4336 21.25 13.4999V18.9999C21.25 19.5966 21.0129 20.1689 20.591 20.5909C20.169 21.0128 19.5967 21.2499 19 21.2499H6C5.13805 21.2499 4.3114 20.9075 3.7019 20.298C3.09241 19.6885 2.75 18.8618 2.75 17.9999V4.94287C2.75 3.92587 3.89907 3.33494 4.72638 3.92574C4.72639 3.92575 4.7264 3.92576 4.72641 3.92577L4.90138 4.05074L4.90138 4.05074L4.90258 4.05159C5.37057 4.3838 5.93049 4.56186 6.5044 4.56098C7.07832 4.56011 7.63769 4.38034 8.10467 4.04671L7.814 3.63988ZM7.814 3.63988C7.43162 3.91307 6.97359 4.06027 6.50364 4.06099C6.03369 4.0617 5.57521 3.9159 5.192 3.64388H14.808C14.4248 3.9159 13.9663 4.0617 13.4964 4.06099C13.0264 4.06027 12.5684 3.91307 12.186 3.63988C11.5476 3.18554 10.7835 2.94141 10 2.94141C9.21645 2.94141 8.45238 3.18554 7.814 3.63988ZM8.39657 4.45216L8.39524 4.45311C7.8432 4.84771 7.18179 5.06021 6.50323 5.06099C5.82481 5.06176 5.16306 4.85087 4.6102 4.45771C4.61008 4.45762 4.60995 4.45753 4.60983 4.45744L4.43562 4.33301L4.435 4.33257C4.32296 4.25279 4.19114 4.20537 4.05396 4.19547C3.91677 4.18558 3.77951 4.2136 3.65718 4.27646C3.53485 4.33933 3.43216 4.43463 3.36035 4.55193C3.28854 4.66924 3.25036 4.80403 3.25 4.94157V4.94287V17.9999C3.25 18.7292 3.53973 19.4287 4.05546 19.9444C4.57118 20.4601 5.27066 20.7499 6 20.7499H16.55H17.3677L16.9951 20.022C16.8384 19.7161 16.75 19.369 16.75 18.9999L16.75 4.94287L16.75 4.94156C16.7496 4.80404 16.7115 4.66925 16.6397 4.55193C16.5678 4.43463 16.4652 4.33933 16.3428 4.27646C16.2205 4.2136 16.0832 4.18558 15.946 4.19547C15.8089 4.20537 15.677 4.25279 15.565 4.33257L15.5644 4.33301L15.3902 4.45744C15.3901 4.45752 15.39 4.4576 15.3898 4.45768C14.837 4.85086 14.1752 5.06176 13.4968 5.06099C12.8182 5.06021 12.1568 4.84771 11.6048 4.45311L11.6034 4.45216C11.1349 4.11957 10.5746 3.9409 10 3.9409C9.42544 3.9409 8.86509 4.11957 8.39657 4.45216ZM17.75 13.7499H17.25V14.2499V18.9999C17.25 19.464 17.4344 19.9091 17.7626 20.2373C18.0908 20.5655 18.5359 20.7499 19 20.7499C19.4641 20.7499 19.9092 20.5655 20.2374 20.2373C20.5656 19.9091 20.75 19.464 20.75 18.9999V14.2499V13.7499H20.25H17.75Z" fill="white" stroke="white"/>
</svg>
