<svg width="24" height="24" viewBox="0 0 24 24" fill="none" xmlns="http://www.w3.org/2000/svg">
<path d="M3 20C2.45 20 1.97933 19.8043 1.588 19.413C1.19667 19.0217 1.00067 18.5507 1 18V7H3V18H20V20H3ZM7 16C6.45 16 5.97933 15.8043 5.588 15.413C5.19667 15.0217 5.00067 14.5507 5 14V6C5 5.45 5.196 4.97933 5.588 4.588C5.98 4.19667 6.45067 4.00067 7 4H21C21.55 4 22.021 4.196 22.413 4.588C22.805 4.98 23.0007 5.45067 23 6V14C23 14.55 22.8043 15.021 22.413 15.413C22.0217 15.805 21.5507 16.0007 21 16H7ZM9 14C9 13.45 8.80433 12.9793 8.413 12.588C8.02167 12.1967 7.55067 12.0007 7 12V14H9ZM19 14H21V12C20.45 12 19.9793 12.196 19.588 12.588C19.1967 12.98 19.0007 13.4507 19 14ZM14 13C14.8333 13 15.5417 12.7083 16.125 12.125C16.7083 11.5417 17 10.8333 17 10C17 9.16667 16.7083 8.45833 16.125 7.875C15.5417 7.29167 14.8333 7 14 7C13.1667 7 12.4583 7.29167 11.875 7.875C11.2917 8.45833 11 9.16667 11 10C11 10.8333 11.2917 11.5417 11.875 12.125C12.4583 12.7083 13.1667 13 14 13ZM7 8C7.55 8 8.021 7.80433 8.413 7.413C8.805 7.02167 9.00067 6.55067 9 6H7V8ZM21 8V6H19C19 6.55 19.196 7.021 19.588 7.413C19.98 7.805 20.4507 8.00067 21 8Z" fill="white"/>
</svg>
