<svg width="24" height="20" viewBox="0 0 24 20" fill="none" xmlns="http://www.w3.org/2000/svg">
<path d="M7.74861 14.2859L16.32 5.71442M0.857178 16.8573C0.857177 17.3113 1.03732 17.7469 1.35807 18.0683C1.67882 18.3896 2.11397 18.5707 2.56803 18.5716H21.432C21.8861 18.5707 22.3213 18.3896 22.642 18.0683C22.9628 17.7469 23.1429 17.3113 23.1429 16.8573V13.3704C22.4027 13.1697 21.7492 12.7309 21.2832 12.1218C20.8173 11.5126 20.5648 10.7671 20.5648 10.0001C20.5648 9.23322 20.8173 8.48764 21.2832 7.8785C21.7492 7.26937 22.4027 6.83057 23.1429 6.62985V3.143C23.1429 2.68893 22.9628 2.25342 22.642 1.93202C22.3213 1.61063 21.8861 1.42962 21.432 1.42871H2.56803C2.11397 1.42962 1.67882 1.61063 1.35807 1.93202C1.03732 2.25342 0.857177 2.68893 0.857178 3.143V6.623C1.60327 6.81923 2.26337 7.257 2.73442 7.86797C3.20547 8.47893 3.46094 9.22867 3.46094 10.0001C3.46094 10.7716 3.20547 11.5214 2.73442 12.1323C2.26337 12.7433 1.60327 13.181 0.857178 13.3773V16.8573Z" stroke="white" stroke-width="2" stroke-linecap="round" stroke-linejoin="round"/>
<path d="M8.60568 7.42913C8.83301 7.42913 9.05102 7.33882 9.21177 7.17808C9.37251 7.01733 9.46282 6.79931 9.46282 6.57199C9.46282 6.34466 9.37251 6.12664 9.21177 5.9659C9.05102 5.80515 8.83301 5.71484 8.60568 5.71484C8.37835 5.71484 8.16033 5.80515 7.99959 5.9659C7.83884 6.12664 7.74854 6.34466 7.74854 6.57199C7.74854 6.79931 7.83884 7.01733 7.99959 7.17808C8.16033 7.33882 8.37835 7.42913 8.60568 7.42913ZM15.4628 14.2863C15.6902 14.2863 15.9082 14.196 16.0689 14.0352C16.2297 13.8745 16.32 13.6565 16.32 13.4291C16.32 13.2018 16.2297 12.9838 16.0689 12.823C15.9082 12.6623 15.6902 12.572 15.4628 12.572C15.2355 12.572 15.0175 12.6623 14.8567 12.823C14.696 12.9838 14.6057 13.2018 14.6057 13.4291C14.6057 13.6565 14.696 13.8745 14.8567 14.0352C15.0175 14.196 15.2355 14.2863 15.4628 14.2863Z" stroke="white" stroke-width="2" stroke-linecap="round" stroke-linejoin="round"/>
</svg>
