<svg width="20" height="20" viewBox="0 0 20 20" fill="none" xmlns="http://www.w3.org/2000/svg">
<path d="M4 12H7.05L12.05 7C12.2 6.85 12.3127 6.679 12.388 6.487C12.4633 6.295 12.5007 6.10767 12.5 5.925C12.5 5.74167 12.4583 5.56267 12.375 5.388C12.2917 5.21333 12.1833 5.05067 12.05 4.9L11.15 3.95C11 3.8 10.8333 3.68767 10.65 3.613C10.4667 3.53833 10.275 3.50067 10.075 3.5C9.89167 3.5 9.70433 3.53767 9.513 3.613C9.32167 3.68833 9.15067 3.80067 9 3.95L4 8.95V12ZM5.5 10.5V9.55L8.025 7.025L8.525 7.475L8.975 7.975L6.45 10.5H5.5ZM8.525 7.475L8.975 7.975L8.025 7.025L8.525 7.475ZM9.175 12H16V10H11.175L9.175 12ZM0 20V2C0 1.45 0.196 0.979333 0.588 0.588C0.98 0.196667 1.45067 0.000666667 2 0H18C18.55 0 19.021 0.196 19.413 0.588C19.805 0.98 20.0007 1.45067 20 2V14C20 14.55 19.8043 15.021 19.413 15.413C19.0217 15.805 18.5507 16.0007 18 16H4L0 20ZM3.15 14H18V2H2V15.125L3.15 14Z" fill="white"/>
</svg>
