<svg width="24" height="24" viewBox="0 0 24 24" fill="none" xmlns="http://www.w3.org/2000/svg">
<g clip-path="url(#clip0_1286_905)">
<path d="M14.3161 9.09698C14.1785 8.70687 13.9232 8.36907 13.5854 8.13019C13.2477 7.89131 12.8441 7.76311 12.4304 7.76327H10.8824C10.4408 7.76095 10.014 7.92248 9.68456 8.21662C9.35512 8.51075 9.14645 8.91659 9.0989 9.35566C9.05134 9.79473 9.16829 10.2358 9.42711 10.5937C9.68594 10.9515 10.0683 11.2007 10.5001 11.293L12.8573 11.8073C13.3393 11.9128 13.7653 12.1927 14.0534 12.5932C14.3415 12.9937 14.4715 13.4866 14.4184 13.9771C14.3652 14.4676 14.1327 14.9212 13.7654 15.2507C13.3982 15.5802 12.9221 15.7623 12.4287 15.7621H11.0967C10.2259 15.7621 9.48529 15.2067 9.21101 14.4301M11.7636 7.76327V5.7627M11.7636 17.7627V15.7638M3.42529 23.1387V18.853H7.71101" stroke="white" stroke-width="2" stroke-linecap="round" stroke-linejoin="round"/>
<path d="M22.9509 9.94926C23.406 12.3753 23.0427 14.8839 21.9179 17.0811C20.7931 19.2783 18.9706 21.0399 16.7364 22.0894C14.5022 23.1388 11.9828 23.4167 9.57359 22.8794C7.16438 22.342 5.00177 21.02 3.42519 19.1207M1.04919 14.0498C0.594093 11.6237 0.957439 9.11523 2.0822 6.91798C3.20697 4.72074 5.02948 2.95916 7.26368 1.90973C9.49788 0.860303 12.0173 0.582432 14.4265 1.11973C16.8357 1.65703 18.9983 2.97909 20.5749 4.8784" stroke="white" stroke-width="2" stroke-linecap="round" stroke-linejoin="round"/>
<path d="M20.575 0.860352V5.14607H16.2893" stroke="white" stroke-width="2" stroke-linecap="round" stroke-linejoin="round"/>
</g>
<defs>
<clipPath id="clip0_1286_905">
<rect width="24" height="24" fill="white"/>
</clipPath>
</defs>
</svg>
